<svg width="701" height="542" viewBox="0 0 701 542" fill="none" xmlns="http://www.w3.org/2000/svg">
<path d="M626.027 304.947H429.062C399.263 304.947 375.088 280.772 375.088 250.973C375.088 221.175 399.263 197 429.062 197H626.027C655.825 197 680 221.175 680 250.973C680 280.793 655.846 304.947 626.027 304.947Z" fill="#5D00A7"/>
<path d="M554.752 241.32V244.56H563.2V241.32H554.752ZM551.968 238.584H566.152V247.296H551.968V238.584ZM548.68 249.312H557.848V260.016H554.968V252.048H551.392V260.16H548.68V249.312ZM559.888 249.312H569.392V260.04H566.488V252.048H562.648V260.16H559.888V249.312ZM549.88 256.2H556.168V258.96H549.88V256.2ZM561.208 256.2H567.928V258.96H561.208V256.2ZM580.672 237.648L582.424 239.328C580.384 239.952 577.576 240.312 575.224 240.48C575.152 240 574.864 239.208 574.6 238.728C576.76 238.512 579.232 238.104 580.672 237.648ZM591.088 237.648L592.84 239.352C590.632 239.976 587.608 240.336 585.064 240.504C584.968 240 584.68 239.232 584.44 238.752C586.792 238.536 589.504 238.128 591.088 237.648ZM573.808 238.152L576.88 238.92C576.856 239.136 576.712 239.232 576.304 239.328V240.48C576.304 242.376 575.848 245.28 573.64 247.32C573.256 246.744 572.344 245.856 571.768 245.52C573.544 243.912 573.808 241.944 573.808 240.36V238.152ZM583.744 238.176L586.816 238.896C586.792 239.112 586.648 239.232 586.24 239.28V240.504C586.24 242.232 585.712 244.728 583.168 246.408C582.832 245.808 581.992 244.872 581.416 244.488C583.408 243.24 583.744 241.752 583.744 240.384V238.176ZM574.936 241.2H582.904V243.312H574.936V241.2ZM584.824 241.2H593.8V243.312H584.824V241.2ZM578.104 241.92H580.648V245.808H578.104V241.92ZM588.184 241.92H590.752V245.832H588.184V241.92ZM577.864 250.656V251.688H588.328V250.656H577.864ZM577.864 253.32V254.376H588.328V253.32H577.864ZM577.864 247.992V249.024H588.328V247.992H577.864ZM575.08 246.264H591.232V256.104H575.08V246.264ZM584.344 257.352L586.744 255.984C589.264 256.896 592.24 258.096 593.944 258.936L590.584 260.232C589.24 259.416 586.768 258.264 584.344 257.352ZM579.016 255.912L581.656 257.088C579.688 258.36 576.568 259.56 574.12 260.256C573.616 259.68 572.632 258.624 571.984 258.144C574.528 257.664 577.384 256.824 579.016 255.912Z" fill="white"/>
<path d="M580.938 130.947H383.973C354.175 130.947 330 106.772 330 76.9734C330 47.1747 354.175 23 383.973 23H580.938C610.737 23 634.912 47.1747 634.912 76.9734C634.912 106.793 610.758 130.947 580.938 130.947Z" fill="#5D00A7"/>
<path d="M581.329 479.734H384.363C354.565 479.734 330.39 455.559 330.39 425.76C330.39 395.962 354.565 371.787 384.363 371.787H581.329C611.127 371.787 635.302 395.962 635.302 425.76C635.302 455.559 611.148 479.734 581.329 479.734Z" fill="#5D00A7"/>
<path d="M513.44 420.296H516.44V436.16H513.44V420.296ZM504.464 415.376H525.536V417.824H504.464V415.376ZM504.08 430.112H525.944V432.728H504.08V430.112ZM509.072 413.6H511.904V419.168H517.952V413.6H520.952V421.28H509.072V413.6ZM509.6 424.688V426.512H520.376V424.688H509.6ZM506.696 422.432H523.472V428.72H506.696V422.432ZM541.28 421.568H550.232V424.232H541.28V421.568ZM528.272 416H539.072V418.352H528.272V416ZM528.032 425.552H539.048V427.976H528.032V425.552ZM527.96 421.352H539.264V423.728H527.96V421.352ZM545.168 422.72H547.952V436.04H545.168V422.72ZM532.28 413.816H535.088V417.056H532.28V413.816ZM532.28 423.584H535.088V436.136H532.28V423.584ZM539.984 415.52L543.344 416.456C543.32 416.696 543.152 416.816 542.72 416.888V423.944C542.72 427.52 542.264 432.824 539 436.208C538.64 435.584 537.584 434.6 536.936 434.24C539.72 431.288 539.984 427.184 539.984 423.896V415.52ZM547.832 413.864L550.136 415.952C547.688 417.056 544.424 417.872 541.616 418.4C541.472 417.776 541.064 416.768 540.728 416.216C543.296 415.64 546.128 414.776 547.832 413.864ZM534.872 428.072C535.616 428.528 537.92 430.328 538.496 430.808L536.84 432.872C536.048 431.912 534.224 430.112 533.336 429.32L534.872 428.072ZM529.472 418.712L531.68 418.184C532.112 419.048 532.448 420.224 532.568 421.016L530.216 421.64C530.168 420.848 529.856 419.624 529.472 418.712ZM535.448 418.136L537.992 418.616C537.536 419.72 537.128 420.752 536.768 421.496L534.488 421.016C534.824 420.2 535.232 418.976 535.448 418.136ZM532.304 426.968L534.344 427.712C533.168 430.352 531.176 433.112 529.256 434.672C528.8 434.048 527.96 433.088 527.36 432.632C529.256 431.408 531.248 429.08 532.304 426.968Z" fill="white"/>
<path d="M334.923 235.221H248.633V266.299H334.923C343.506 266.299 350.473 259.332 350.473 250.75C350.473 242.188 343.506 235.221 334.923 235.221ZM334.902 260.214C329.677 260.214 325.459 255.996 325.459 250.771C325.459 245.545 329.677 241.327 334.902 241.327C340.127 241.327 344.345 245.545 344.345 250.771C344.345 255.996 340.127 260.214 334.902 260.214Z" fill="#5D00A7"/>
<path d="M334.923 142.005H236.042V173.105H334.923C343.506 173.105 350.473 166.138 350.473 157.555C350.473 148.952 343.506 142.005 334.923 142.005ZM334.902 166.978C329.677 166.978 325.459 162.76 325.459 157.534C325.459 152.309 329.677 148.091 334.902 148.091C340.127 148.091 344.345 152.309 344.345 157.534C344.345 162.76 340.127 166.978 334.902 166.978Z" fill="#5D00A7"/>
<path d="M334.923 328.751H236.042V359.851H334.923C343.506 359.851 350.473 352.884 350.473 344.301C350.473 335.697 343.506 328.751 334.923 328.751ZM334.902 353.723C329.677 353.723 325.459 349.505 325.459 344.28C325.459 339.054 329.677 334.836 334.902 334.836C340.127 334.836 344.345 339.054 344.345 344.28C344.345 349.505 340.127 353.723 334.902 353.723Z" fill="#5D00A7"/>
<g style="mix-blend-mode:multiply">
<path d="M449.669 357.584C499.226 357.584 539.401 317.41 539.401 267.852C539.401 218.295 499.226 178.12 449.669 178.12C400.111 178.12 359.937 218.295 359.937 267.852C359.937 317.41 400.111 357.584 449.669 357.584Z" fill="url(#paint0_radial_774_650)"/>
</g>
<g style="mix-blend-mode:multiply">
<path d="M399.682 179.464C449.24 179.464 489.414 139.289 489.414 89.7318C489.414 40.1743 449.24 0 399.682 0C350.125 0 309.951 40.1743 309.951 89.7318C309.951 139.289 350.125 179.464 399.682 179.464Z" fill="url(#paint1_radial_774_650)"/>
</g>
<g style="mix-blend-mode:multiply">
<path d="M398.843 541.917C456.676 541.917 503.558 495.034 503.558 437.201C503.558 379.369 456.676 332.486 398.843 332.486C341.011 332.486 294.128 379.369 294.128 437.201C294.128 495.034 341.011 541.917 398.843 541.917Z" fill="url(#paint2_radial_774_650)"/>
</g>
<path d="M338.294 162.403C341.04 160.567 341.777 156.853 339.942 154.107C338.106 151.361 334.392 150.623 331.646 152.459C328.9 154.295 328.162 158.009 329.998 160.755C331.834 163.501 335.548 164.239 338.294 162.403Z" fill="#1D1D1B"/>
<path d="M369.065 15.277C335.238 23.5032 314.483 57.6247 322.731 91.4735C330.978 125.322 365.078 146.076 398.927 137.829C432.776 129.582 453.53 95.4817 445.283 61.6329C437.036 27.7841 402.914 7.02993 369.065 15.277Z" fill="#5D00A7"/>
<path d="M334.923 158.605C334.734 158.605 334.545 158.563 334.377 158.458C333.874 158.164 333.727 157.514 334.021 157.01L366.568 103.519C366.862 103.015 367.513 102.869 368.016 103.162C368.52 103.456 368.667 104.107 368.373 104.61L335.825 158.101C335.616 158.416 335.28 158.605 334.923 158.605Z" fill="#1D1D1B"/>
<path d="M383.986 130.002C413.516 130.002 437.456 106.063 437.456 76.5323C437.456 47.0017 413.516 23.0625 383.986 23.0625C354.455 23.0625 330.516 47.0017 330.516 76.5323C330.516 106.063 354.455 130.002 383.986 130.002Z" fill="#F9F9F9"/>
<path d="M383.944 131.135C373.976 131.135 364.197 128.344 355.656 123.14C343.212 115.564 334.461 103.603 331.02 89.4381C327.578 75.2732 329.845 60.6467 337.42 48.2026C342.373 40.0604 349.382 33.3452 357.692 28.7705C365.75 24.3426 374.857 21.9923 384.049 21.9923C393.996 21.9923 403.775 24.7413 412.337 29.9456C424.781 37.5212 433.531 49.4827 436.973 63.6265C440.415 77.7704 438.148 92.4179 430.573 104.862C425.62 113.004 418.611 119.761 410.301 124.315C402.264 128.764 393.135 131.135 383.944 131.135ZM384.049 24.1118C365.561 24.1118 348.815 33.5341 339.225 49.2938C324.2 73.9931 332.069 106.331 356.768 121.356C364.994 126.351 374.396 129.037 383.965 129.037C402.453 129.037 419.199 119.594 428.789 103.813C443.814 79.1135 435.945 46.7966 411.245 31.7713C403.019 26.7769 393.618 24.1118 384.049 24.1118Z" fill="#1D1D1B"/>
<path d="M334.902 256.751C338.205 256.751 340.883 254.073 340.883 250.77C340.883 247.467 338.205 244.79 334.902 244.79C331.599 244.79 328.921 247.467 328.921 250.77C328.921 254.073 331.599 256.751 334.902 256.751Z" fill="#1D1D1B"/>
<path d="M474.137 206.135C449.501 181.499 409.588 181.499 384.951 206.135C360.315 230.772 360.315 270.685 384.951 295.321C409.588 319.958 449.501 319.958 474.137 295.321C498.753 270.706 498.753 230.772 474.137 206.135Z" fill="#5D00A7"/>
<path d="M420.08 251.967H333.748C333.16 251.967 332.698 251.505 332.698 250.917C332.698 250.33 333.16 249.868 333.748 249.868H420.08C420.668 249.868 421.129 250.33 421.129 250.917C421.129 251.484 420.668 251.967 420.08 251.967Z" fill="#1D1D1B"/>
<path d="M429.523 304.198C459.054 304.198 482.993 280.259 482.993 250.728C482.993 221.198 459.054 197.259 429.523 197.259C399.993 197.259 376.053 221.198 376.053 250.728C376.053 280.259 399.993 304.198 429.523 304.198Z" fill="#F9F9F9"/>
<path d="M429.523 305.247C414.96 305.247 401.278 299.582 390.974 289.278C380.67 278.974 375.004 265.292 375.004 250.728C375.004 236.165 380.67 222.483 390.974 212.179C401.278 201.875 414.96 196.209 429.523 196.209C444.087 196.209 457.769 201.875 468.073 212.179C478.376 222.483 484.042 236.165 484.042 250.728C484.042 265.292 478.376 278.974 468.073 289.278C457.79 299.582 444.087 305.247 429.523 305.247ZM429.523 198.329C400.627 198.329 377.103 221.832 377.103 250.749C377.103 279.646 400.606 303.17 429.523 303.17C458.42 303.17 481.944 279.667 481.944 250.749C481.944 221.832 458.441 198.329 429.523 198.329Z" fill="#1D1D1B"/>
<path d="M340.896 345.819C341.692 342.613 339.737 339.37 336.531 338.574C333.326 337.779 330.082 339.733 329.286 342.939C328.491 346.145 330.445 349.389 333.651 350.184C336.857 350.979 340.101 349.025 340.896 345.819Z" fill="#1D1D1B"/>
<path d="M444.927 440.727C453.321 406.92 432.713 372.714 398.906 364.32C365.1 355.926 330.894 376.534 322.5 410.34C314.106 444.147 334.713 478.353 368.52 486.747C402.327 495.141 436.533 474.533 444.927 440.727Z" fill="#5D00A7"/>
<path d="M369.737 403.751C369.381 403.751 369.045 403.562 368.835 403.248L333.79 345.056C333.496 344.553 333.643 343.923 334.147 343.608C334.651 343.315 335.28 343.461 335.595 343.965L370.64 402.156C370.934 402.66 370.787 403.29 370.283 403.604C370.115 403.709 369.926 403.751 369.737 403.751Z" fill="#1D1D1B"/>
<path d="M421.639 463.434C442.52 442.553 442.52 408.698 421.639 387.817C400.758 366.936 366.903 366.936 346.022 387.817C325.141 408.698 325.141 442.553 346.022 463.434C366.903 484.315 400.758 484.315 421.639 463.434Z" fill="#F9F9F9"/>
<path d="M383.777 480.116C374.543 480.116 365.394 477.723 357.315 473.275C348.984 468.679 341.975 461.901 337.043 453.696C329.531 441.23 327.327 426.562 330.832 412.439C334.336 398.316 343.129 386.376 355.615 378.863C364.114 373.743 373.83 371.036 383.693 371.036C392.926 371.036 402.076 373.386 410.155 377.856C418.486 382.451 425.495 389.23 430.426 397.414C437.939 409.879 440.142 424.547 436.638 438.67C433.133 452.793 424.341 464.755 411.855 472.267C403.356 477.388 393.64 480.116 383.777 480.116ZM383.672 373.134C374.187 373.134 364.848 375.736 356.664 380.668C344.682 387.887 336.204 399.344 332.846 412.943C329.468 426.541 331.587 440.622 338.827 452.604C348.396 468.49 365.205 477.975 383.777 477.975C393.262 477.975 402.6 475.373 410.763 470.442C422.746 463.223 431.224 451.765 434.581 438.167C437.96 424.568 435.84 410.487 428.601 398.505C419.052 382.619 402.244 373.134 383.672 373.134Z" fill="#1D1D1B"/>
<g style="mix-blend-mode:multiply">
<path d="M172.991 451.546C268.531 451.546 345.982 374.095 345.982 278.555C345.982 183.014 268.531 105.564 172.991 105.564C77.4507 105.564 0 183.014 0 278.555C0 374.095 77.4507 451.546 172.991 451.546Z" fill="url(#paint3_radial_774_650)"/>
</g>
<path d="M161.173 398.652C238.36 398.652 300.933 336.079 300.933 258.892C300.933 181.705 238.36 119.132 161.173 119.132C83.986 119.132 21.4134 181.705 21.4134 258.892C21.4134 336.079 83.986 398.652 161.173 398.652Z" fill="#F9F9F9"/>
<path d="M160.76 398.519C237.947 398.519 300.519 335.947 300.519 258.76C300.519 181.573 237.947 119 160.76 119C83.5726 119 21 181.573 21 258.76C21 335.947 83.5726 398.519 160.76 398.519Z" fill="#F9F9F9"/>
<g opacity="0.25">
<path d="M153.99 273.944C157.271 278.804 160.389 283.503 163.508 288.16C163.67 288.16 163.832 288.12 163.994 288.12C167.882 273.539 171.77 258.958 175.699 244.215C161.928 244.215 148.441 244.215 134.468 244.215C137.587 248.995 140.503 253.49 143.5 258.108C138.073 263.859 132.645 269.489 125.031 272.324C118.146 274.876 110.045 270.825 108.263 263.981C107.453 260.862 108.02 257.905 109.559 255.151C115.999 243.324 122.56 231.538 129.122 219.752C138.761 202.458 162.576 203.065 172.864 218.092C175.578 222.101 177.684 226.516 179.992 230.769C187.404 244.215 194.816 257.662 202.269 271.109C204.334 274.835 206.683 278.399 207.696 282.612C210.977 296.261 201.134 311.409 187.121 313.231C179.344 314.244 171.406 314.001 163.508 314.163C160.227 314.203 156.866 314.041 153.625 313.515C142.204 311.652 138.235 302.215 140.503 292.454C141.88 286.459 145.484 281.801 149.818 277.63C151.114 276.374 152.491 275.281 153.99 273.944Z" fill="black"/>
</g>
<path d="M159.66 271.109C162.941 275.969 166.06 280.667 169.178 285.325C169.34 285.325 169.502 285.285 169.664 285.285C173.552 270.704 177.441 256.123 181.369 241.38C167.599 241.38 154.111 241.38 140.138 241.38C143.257 246.16 146.173 250.655 149.17 255.273C143.743 261.024 138.316 266.654 130.701 269.489C123.816 272.04 115.715 267.99 113.933 261.145C113.123 258.027 113.69 255.07 115.229 252.316C121.669 240.489 128.231 228.703 134.792 216.917C144.431 199.622 168.247 200.23 178.534 215.256C181.248 219.266 183.354 223.681 185.663 227.934C193.075 241.38 200.486 254.827 207.939 268.274C210.004 272 212.354 275.564 213.366 279.776C216.647 293.426 206.805 308.573 192.791 310.396C185.015 311.409 177.076 311.166 169.178 311.328C165.898 311.368 162.536 311.206 159.296 310.68C147.874 308.816 143.905 299.379 146.173 289.618C147.55 283.624 151.155 278.966 155.488 274.795C156.785 273.539 158.162 272.445 159.66 271.109Z" fill="url(#paint4_linear_774_650)"/>
<path d="M161.173 118.812C83.8019 118.812 21.0936 181.538 21.0936 258.892C21.0936 336.246 83.8188 398.972 161.173 398.972C238.527 398.972 301.253 336.246 301.253 258.892C301.253 181.538 238.527 118.812 161.173 118.812ZM161.173 394.679C86.1756 394.679 25.3864 333.89 25.3864 258.892C25.3864 183.895 86.1756 123.105 161.173 123.105C236.171 123.105 296.96 183.895 296.96 258.892C296.96 333.89 236.154 394.679 161.173 394.679Z" fill="url(#paint5_linear_774_650)"/>
<g clip-path="url(#clip0_774_650)">
<path d="M394.322 409.724C390.424 406.555 385.315 405.337 380.303 406.381C373.79 407.739 368.642 413.112 367.514 419.671C366.523 425.424 368.504 430.887 372.381 434.598C374.88 436.991 376.314 440.32 376.314 443.732V446.851C376.314 449.347 378.344 451.377 380.84 451.377H386.876C389.372 451.377 391.402 449.347 391.402 446.851C391.402 444.094 391.402 449.431 391.402 442.834C391.402 439.911 392.763 437.02 395.233 434.695C398.552 431.57 400.455 427.165 400.455 422.608C400.456 417.589 398.22 412.893 394.322 409.724ZM386.876 448.359H380.84C380.008 448.359 379.331 447.682 379.331 446.85V445.241H388.385V446.85C388.385 447.682 387.708 448.359 386.876 448.359ZM383.858 431.959L379.764 425.818L380.84 424.742L382.791 426.693C383.38 427.282 384.336 427.282 384.925 426.693L386.876 424.742L387.952 425.818L383.858 431.959ZM393.165 432.497C390.249 435.242 388.573 438.675 388.4 442.223H385.367V435.136L391.066 426.587L393.978 423.675C394.567 423.086 394.567 422.13 393.978 421.541C393.389 420.952 392.433 420.952 391.844 421.541L389.893 423.492L387.943 421.541C387.353 420.952 386.398 420.952 385.809 421.541L383.858 423.492L381.907 421.541C381.318 420.952 380.362 420.952 379.773 421.541L377.822 423.492L375.871 421.541C375.282 420.952 374.327 420.952 373.738 421.541C373.148 422.13 373.148 423.086 373.738 423.675L376.65 426.587L382.349 435.136V442.223H379.256C378.889 438.533 377.19 435.024 374.468 432.418C371.147 429.239 369.696 424.779 370.487 420.183C371.413 414.802 375.605 410.443 380.918 409.335C385.036 408.477 389.228 409.472 392.418 412.065C395.608 414.659 397.437 418.502 397.437 422.608C397.438 426.391 395.92 429.903 393.165 432.497Z" fill="#5D00A7"/>
<path d="M364.142 422.608C364.142 421.775 363.467 421.099 362.633 421.099H359.615C358.782 421.099 358.107 421.775 358.107 422.608C358.107 423.441 358.782 424.117 359.615 424.117H362.633C363.467 424.117 364.142 423.441 364.142 422.608Z" fill="#5D00A7"/>
<path d="M408.101 421.099H405.083C404.249 421.099 403.574 421.775 403.574 422.608C403.574 423.441 404.249 424.117 405.083 424.117H408.101C408.934 424.117 409.609 423.441 409.609 422.608C409.609 421.775 408.934 421.099 408.101 421.099Z" fill="#5D00A7"/>
<path d="M366.318 410.739L363.705 409.23C362.983 408.813 362.06 409.061 361.644 409.783C361.227 410.504 361.475 411.427 362.196 411.844L364.809 413.353C365.531 413.769 366.454 413.522 366.871 412.801C367.287 412.079 367.04 411.156 366.318 410.739Z" fill="#5D00A7"/>
<path d="M405.52 433.372L402.906 431.863C402.185 431.447 401.262 431.694 400.845 432.416C400.429 433.137 400.676 434.06 401.397 434.477L404.011 435.986C404.732 436.402 405.655 436.155 406.072 435.433C406.489 434.712 406.242 433.789 405.52 433.372Z" fill="#5D00A7"/>
<path d="M371.989 404.751C372.406 405.473 373.329 405.72 374.05 405.303C374.772 404.887 375.019 403.964 374.602 403.243L373.094 400.629C372.677 399.907 371.754 399.66 371.033 400.077C370.311 400.494 370.064 401.416 370.48 402.138L371.989 404.751Z" fill="#5D00A7"/>
<path d="M364.809 431.863L362.196 433.372C361.475 433.789 361.227 434.712 361.644 435.433C362.061 436.155 362.984 436.402 363.705 435.986L366.318 434.477C367.04 434.06 367.287 433.137 366.871 432.416C366.454 431.694 365.531 431.447 364.809 431.863Z" fill="#5D00A7"/>
<path d="M402.906 413.353L405.52 411.844C406.242 411.427 406.489 410.504 406.072 409.783C405.655 409.061 404.733 408.814 404.011 409.23L401.397 410.739C400.676 411.156 400.429 412.079 400.845 412.801C401.262 413.522 402.185 413.77 402.906 413.353Z" fill="#5D00A7"/>
<path d="M393.666 405.303C394.387 405.72 395.31 405.474 395.727 404.751L397.235 402.138C397.652 401.416 397.405 400.494 396.683 400.077C395.962 399.66 395.039 399.907 394.622 400.629L393.113 403.243C392.697 403.964 392.944 404.887 393.666 405.303Z" fill="#5D00A7"/>
</g>
<g clip-path="url(#clip1_774_650)">
<path d="M450.224 270.122H447.874V230.279C447.874 229.639 447.355 229.12 446.716 229.12H438.99C438.35 229.12 437.831 229.639 437.831 230.279V270.122H434.773C434.773 261.596 434.773 275.179 434.773 236.459C434.773 235.82 434.254 235.301 433.614 235.301H425.889C425.249 235.301 424.73 235.82 424.73 236.459V239.026C424.73 240.56 427.048 240.56 427.048 239.026V237.618H432.455V269.997H427.048V262.768C427.048 261.234 424.73 261.234 424.73 262.768V270.122H421.672V263.105C421.672 261.572 419.354 261.572 419.354 263.105V270.123H413.946V266.202C413.946 264.669 411.629 264.669 411.629 266.202V270.122H409.279C407.745 270.122 407.745 272.44 409.279 272.44H450.224C451.758 272.44 451.758 270.122 450.224 270.122ZM440.149 231.438H445.557V269.997H440.149V231.438Z" fill="#5D00A7"/>
<path d="M410.163 264.875L417.077 257.96C418.57 259.098 420.426 259.781 422.444 259.781C427.344 259.781 431.329 255.796 431.329 250.897C431.329 245.999 427.344 242.013 422.444 242.013C417.545 242.013 413.56 245.999 413.56 250.897C413.56 252.944 414.262 254.826 415.43 256.33L408.525 263.237C407.44 264.321 409.079 265.96 410.163 264.875ZM422.444 244.331C426.065 244.331 429.011 247.277 429.011 250.897C429.011 254.518 426.065 257.464 422.444 257.464C418.823 257.464 415.878 254.518 415.878 250.897C415.878 247.277 418.823 244.331 422.444 244.331Z" fill="#5D00A7"/>
<path d="M420.276 254.264C420.727 254.714 421.46 254.718 421.915 254.264L426.527 249.651C427.612 248.567 425.973 246.928 424.889 248.013L421.095 251.805L419.518 250.23C418.431 249.144 416.796 250.787 417.88 251.869L420.276 254.264Z" fill="#5D00A7"/>
</g>
<path d="M502.488 62.648H505.44V66.488H502.488V62.648ZM493.704 64.736H514.272V69.896H511.296V67.256H496.56V69.896H493.704V64.736ZM495.84 69.152H512.328V71.48H495.84V69.152ZM493.512 76.76H514.608V79.256H493.512V76.76ZM496.224 72.92H511.848V75.248H496.224V72.92ZM505.416 77.264C506.832 80.432 509.952 82.184 514.944 82.712C514.344 83.312 513.6 84.464 513.24 85.232C507.744 84.344 504.672 82.064 502.824 77.792L505.416 77.264ZM502.416 67.784H505.32V74.456C505.32 78.68 503.568 82.808 494.832 85.16C494.52 84.536 493.68 83.432 493.056 82.832C501.36 80.936 502.416 77.648 502.416 74.432V67.784ZM521.04 64.232H535.776V66.968H521.04V64.232ZM521.04 69.752H535.824V72.44H521.04V69.752ZM520.992 75.416H535.92V78.128H520.992V75.416ZM519.384 64.232H522.24V72.872C522.24 76.688 521.76 82.088 518.808 85.304C518.352 84.752 517.176 83.792 516.552 83.432C519.168 80.528 519.384 76.232 519.384 72.848V64.232ZM534.768 64.232H537.624V81.776C537.624 83.312 537.288 84.08 536.328 84.536C535.32 84.992 533.88 85.04 531.696 85.016C531.576 84.248 531.144 83 530.76 82.256C532.128 82.352 533.712 82.328 534.144 82.328C534.6 82.304 534.768 82.16 534.768 81.752V64.232ZM526.776 65.312H529.704V84.872H526.776V65.312ZM543.552 62.624H546.456V85.16H543.552V62.624ZM541.536 67.232L543.6 67.52C543.48 69.608 543.072 72.464 542.496 74.288L540.36 73.544C540.96 71.912 541.368 69.224 541.536 67.232ZM545.88 67.424L547.824 66.584C548.496 67.832 549.192 69.464 549.432 70.472L547.368 71.456C547.152 70.4 546.504 68.72 545.88 67.424ZM550.44 63.728L553.224 64.16C552.744 67.736 551.808 71.288 550.56 73.544C549.984 73.136 548.688 72.512 547.992 72.224C549.264 70.208 550.056 66.944 550.44 63.728ZM551.28 67.472H562.368V70.208H550.464L551.28 67.472ZM554.568 62.768H557.448V83.24H554.568V62.768ZM549.912 74.144H561.864V76.832H549.912V74.144ZM548.112 81.656H563.112V84.392H548.112V81.656Z" fill="white"/>
<path d="M383.752 90.1887C382.434 90.1887 380.732 89.4591 379.942 88.9398C378.985 88.311 374.183 84.6993 370.187 81.3538C369.522 80.7959 368.532 79.7615 367.575 78.7615C366.865 78.0211 366.221 77.3409 365.889 77.0597C365.436 76.6778 365.38 75.9996 365.762 75.5468C366.142 75.0919 366.818 75.034 367.275 75.4202C367.64 75.7292 368.35 76.4653 369.127 77.2765C370.002 78.1907 370.994 79.225 371.567 79.7078C375.646 83.1242 380.369 86.6479 381.123 87.1436C381.751 87.5599 383.037 88.0427 383.752 88.0427C384.756 88.0427 384.848 87.7852 384.889 87.6779C385.011 87.341 385.292 87.0878 385.642 87.002C385.988 86.9183 386.357 87.0105 386.623 87.2509C387.05 87.6415 387.526 87.5663 387.855 87.4419C388.535 87.1779 389.056 86.5019 389.121 85.7981C389.159 85.3903 389.425 85.0384 389.807 84.8946C390.189 84.753 390.621 84.8345 390.921 85.1135C391.189 85.3624 391.906 85.4225 392.593 85.0749C392.863 84.9397 393.488 84.5491 393.415 83.8667C393.37 83.4504 393.571 83.0448 393.932 82.8302C394.29 82.6156 394.743 82.6306 395.091 82.8688C395.406 83.0899 395.988 82.974 396.413 82.6092C396.702 82.3624 397.129 81.8238 396.732 80.9976C395.928 79.3237 392.35 76.431 389.196 73.8794C387.451 72.4695 385.794 71.1283 384.567 69.9759C384.254 70.1025 384.018 70.2077 383.816 70.2978C383.258 70.5489 382.887 70.7034 382.204 70.8086C380.552 73.0017 378.333 73.77 375.902 72.9674C374.932 72.6477 374.279 71.9609 374.058 71.0339C373.543 68.8557 375.537 65.8857 377.005 64.4179C380.861 60.5595 383.561 59.111 388.481 61.3106C392.704 63.2011 396.936 64.6797 396.979 64.6947C397.539 64.89 397.833 65.5016 397.64 66.0617C397.445 66.6218 396.838 66.9179 396.273 66.7227C396.23 66.7076 391.913 65.199 387.603 63.272C383.805 61.5745 382.007 62.4479 378.52 65.9372C377.054 67.4029 375.923 69.5961 376.148 70.5382C376.181 70.6755 376.241 70.8193 376.575 70.9309C377.625 71.2828 379.196 71.476 380.713 69.2077C380.891 68.9416 381.179 68.7699 381.498 68.7377C382.221 68.6648 382.402 68.5832 382.938 68.3429C383.29 68.1862 383.736 67.9845 384.46 67.7227C384.848 67.5832 385.288 67.6776 385.582 67.9738C386.756 69.1476 388.597 70.6369 390.546 72.212C394.039 75.0382 397.655 77.9632 398.666 80.0705C399.378 81.5491 399.039 83.1886 397.808 84.2423C397.08 84.8667 396.2 85.1693 395.346 85.1242C395.037 85.8989 394.415 86.562 393.554 86.9955C392.674 87.4376 391.707 87.5642 390.861 87.3839C390.406 88.3067 389.604 89.0685 388.627 89.4462C387.801 89.7681 386.943 89.7659 386.187 89.472C385.623 89.9462 384.809 90.1887 383.752 90.1887Z" fill="#5D00A7"/>
<path d="M379.46 64.4372H369.803C369.211 64.4372 368.73 63.9565 368.73 63.3642C368.73 62.772 369.211 62.2913 369.803 62.2913H379.46C380.052 62.2913 380.533 62.772 380.533 63.3642C380.533 63.9565 380.052 64.4372 379.46 64.4372Z" fill="#5D00A7"/>
<path d="M397.784 81.5663C397.438 81.5663 397.099 81.3989 396.891 81.092C396.561 80.6006 396.692 79.9332 397.183 79.6027L400.32 77.4954C400.812 77.1606 401.477 77.2958 401.81 77.7872C402.14 78.2787 402.009 78.9461 401.518 79.2765L398.38 81.3839C398.196 81.5083 397.988 81.5663 397.784 81.5663Z" fill="#5D00A7"/>
<path d="M394.481 84.8238C394.25 84.8238 394.013 84.7487 393.818 84.5942C392.687 83.7015 387.822 78.6306 387.271 78.0554C386.861 77.6284 386.874 76.9481 387.303 76.5383C387.73 76.1262 388.41 76.1413 388.82 76.5704C390.945 78.7851 394.38 82.3023 395.149 82.9075C395.614 83.2744 395.694 83.9504 395.327 84.4139C395.112 84.6822 394.797 84.8238 394.481 84.8238Z" fill="#5D00A7"/>
<path d="M390.189 86.9697C389.955 86.9697 389.717 86.8925 389.52 86.7358C387.927 85.4611 384.073 81.3001 384.035 81.2594C383.633 80.8237 383.663 80.1435 384.099 79.7422C384.537 79.343 385.213 79.3688 385.616 79.8065C386.346 80.6005 389.576 84.0319 390.861 85.0598C391.322 85.4289 391.398 86.1049 391.028 86.5684C390.816 86.8303 390.503 86.9697 390.189 86.9697Z" fill="#5D00A7"/>
<path d="M385.897 89.1157C385.653 89.1157 385.408 89.032 385.206 88.8625C383.625 87.5277 380.629 84.3517 379.749 83.4096C379.346 82.9761 379.367 82.298 379.801 81.8924C380.232 81.4868 380.912 81.5105 381.318 81.9439C381.93 82.5985 385.061 85.9311 386.591 87.2208C387.043 87.6028 387.101 88.2788 386.719 88.7337C386.507 88.9848 386.202 89.1157 385.897 89.1157Z" fill="#5D00A7"/>
<path d="M365.511 79.4589H359.073C358.481 79.4589 358 78.9782 358 78.3859V59.0723C358 58.7762 358.122 58.4929 358.337 58.2912C358.552 58.0873 358.833 57.9864 359.137 58.0015C361.348 58.1324 368.702 58.6968 370.541 60.4393C370.779 60.6625 370.899 60.9843 370.871 61.3105C370.384 66.89 366.687 78.2378 366.53 78.7185C366.386 79.1606 365.974 79.4589 365.511 79.4589ZM360.146 77.3129H364.728C365.526 74.7936 368.099 66.4437 368.668 61.744C367.316 61.0873 363.595 60.4951 360.146 60.2225V77.3129Z" fill="#5D00A7"/>
<path d="M408.43 81.6048H401.992C401.509 81.6048 401.087 81.2829 400.958 80.8173C400.16 77.9245 396.007 66.066 394.681 63.9307C394.52 63.6689 394.477 63.3535 394.563 63.0595C394.649 62.7655 394.857 62.523 395.136 62.3921C395.331 62.302 400.005 60.1453 408.43 60.1453C409.022 60.1453 409.503 60.6238 409.503 61.2182V80.5319C409.503 81.1241 409.022 81.6048 408.43 81.6048ZM402.795 79.4589H407.357V62.3041C402.252 62.4243 398.735 63.3792 397.097 63.935C398.773 67.5059 401.778 76.1455 402.795 79.4589Z" fill="#5D00A7"/>
<defs>
<radialGradient id="paint0_radial_774_650" cx="0" cy="0" r="1" gradientUnits="userSpaceOnUse" gradientTransform="translate(449.66 267.862) rotate(45) scale(89.7408)">
<stop offset="0.1854"/>
<stop offset="0.2504" stop-color="#323232"/>
<stop offset="0.322" stop-color="#626262"/>
<stop offset="0.398" stop-color="#8C8C8C"/>
<stop offset="0.477" stop-color="#B0B0B0"/>
<stop offset="0.5597" stop-color="#CCCCCC"/>
<stop offset="0.6475" stop-color="#E3E3E3"/>
<stop offset="0.7428" stop-color="#F3F3F3"/>
<stop offset="0.851" stop-color="#FCFCFC"/>
<stop offset="1" stop-color="white"/>
</radialGradient>
<radialGradient id="paint1_radial_774_650" cx="0" cy="0" r="1" gradientUnits="userSpaceOnUse" gradientTransform="translate(399.687 89.7408) rotate(45) scale(89.7408)">
<stop offset="0.1854"/>
<stop offset="0.2224" stop-color="#191919"/>
<stop offset="0.308" stop-color="#4F4F4F"/>
<stop offset="0.397" stop-color="#7E7E7E"/>
<stop offset="0.4876" stop-color="#A6A6A6"/>
<stop offset="0.5802" stop-color="#C6C6C6"/>
<stop offset="0.6753" stop-color="#DFDFDF"/>
<stop offset="0.7741" stop-color="#F1F1F1"/>
<stop offset="0.8789" stop-color="#FCFCFC"/>
<stop offset="1" stop-color="white"/>
</radialGradient>
<radialGradient id="paint2_radial_774_650" cx="0" cy="0" r="1" gradientUnits="userSpaceOnUse" gradientTransform="translate(398.834 437.205) rotate(45) scale(104.715)">
<stop offset="0.1854"/>
<stop offset="0.2504" stop-color="#323232"/>
<stop offset="0.322" stop-color="#626262"/>
<stop offset="0.398" stop-color="#8C8C8C"/>
<stop offset="0.477" stop-color="#B0B0B0"/>
<stop offset="0.5597" stop-color="#CCCCCC"/>
<stop offset="0.6475" stop-color="#E3E3E3"/>
<stop offset="0.7428" stop-color="#F3F3F3"/>
<stop offset="0.851" stop-color="#FCFCFC"/>
<stop offset="1" stop-color="white"/>
</radialGradient>
<radialGradient id="paint3_radial_774_650" cx="0" cy="0" r="1" gradientUnits="userSpaceOnUse" gradientTransform="translate(172.983 278.561) scale(172.983)">
<stop offset="0.573" stop-color="#6B6E73"/>
<stop offset="0.6075" stop-color="#87898D"/>
<stop offset="0.6617" stop-color="#ABADB0"/>
<stop offset="0.7187" stop-color="#CACBCD"/>
<stop offset="0.7784" stop-color="#E1E2E3"/>
<stop offset="0.8418" stop-color="#F2F2F3"/>
<stop offset="0.9116" stop-color="#FCFCFC"/>
<stop offset="1" stop-color="white"/>
</radialGradient>
<linearGradient id="paint4_linear_774_650" x1="111.138" y1="212.857" x2="212.387" y2="303.202" gradientUnits="userSpaceOnUse">
<stop stop-color="#6E07AD"/>
<stop offset="0.7793" stop-color="#CB457A"/>
<stop offset="1" stop-color="#E85A6A"/>
</linearGradient>
<linearGradient id="paint5_linear_774_650" x1="113.916" y1="122.871" x2="207.044" y2="390.968" gradientUnits="userSpaceOnUse">
<stop offset="0.2409" stop-color="white"/>
<stop offset="0.5074" stop-color="#ECEDEC"/>
<stop offset="0.7226" stop-color="#E1E3E2"/>
</linearGradient>
<clipPath id="clip0_774_650">
<rect width="51.503" height="51.503" fill="white" transform="translate(358.107 399.874)"/>
</clipPath>
<clipPath id="clip1_774_650">
<rect width="51.503" height="51.503" fill="white" transform="translate(403.976 225.247)"/>
</clipPath>
</defs>
</svg>
