<svg width="68" height="54" viewBox="0 0 68 54" fill="none" xmlns="http://www.w3.org/2000/svg">
<g clip-path="url(#clip0_30_1091)">
<path fill-rule="evenodd" clip-rule="evenodd" d="M0.538208 17.2546V51.3401C0.539002 52.0453 0.819469 52.7213 1.31808 53.22C1.8167 53.7187 2.49274 53.9992 3.19792 54H24.111V14.5946H3.19792C2.49274 14.5955 1.8167 14.876 1.31808 15.3747C0.819469 15.8733 0.539002 16.5494 0.538208 17.2546ZM26.9256 14.5946V25.6774H39.9436V17.2546C39.943 16.5493 39.6625 15.8731 39.1638 15.3744C38.6651 14.8757 37.9889 14.5952 37.2836 14.5946L26.9256 14.5946ZM39.9436 28.4922H26.9256V40.1026H39.9436V28.4922ZM39.9436 42.9173H26.9256V54H37.2836C37.9888 53.9994 38.665 53.719 39.1637 53.2203C39.6624 52.7216 39.9428 52.0454 39.9435 51.3402L39.9436 42.9173Z" fill="#E5E6FA"/>
</g>
<path d="M63.0002 20.25H18.0002M45.0002 39.375L50.6252 33.75L45.0002 28.125M36.0002 28.125L30.3752 33.75L36.0002 39.375M18.0002 17.55L18.0002 36.45C18.0002 40.2303 18.0002 42.1205 18.736 43.5644C19.3831 44.8345 20.4157 45.8671 21.6858 46.5143C23.1297 47.25 25.0199 47.25 28.8002 47.25H52.2002C55.9806 47.25 57.8708 47.25 59.3147 46.5143C60.5848 45.8671 61.6174 44.8345 62.2645 43.5644C63.0002 42.1205 63.0002 40.2304 63.0002 36.45V17.55C63.0002 13.7696 63.0002 11.8795 62.2645 10.4356C61.6174 9.16547 60.5848 8.13285 59.3147 7.48571C57.8708 6.75 55.9806 6.75 52.2002 6.75L28.8002 6.75C25.0199 6.75 23.1297 6.75 21.6858 7.48571C20.4157 8.13285 19.3831 9.16547 18.736 10.4356C18.0002 11.8795 18.0002 13.7696 18.0002 17.55Z" stroke="#5D00A7" stroke-width="2.91892" stroke-linecap="round" stroke-linejoin="round"/>
<defs>
<clipPath id="clip0_30_1091">
<rect width="39.4054" height="39.4054" fill="white" transform="translate(0.499756 14.5946)"/>
</clipPath>
</defs>
</svg>
