<svg width="68" height="54" viewBox="0 0 68 54" fill="none" xmlns="http://www.w3.org/2000/svg">
<g clip-path="url(#clip0_10_3504)">
<path fill-rule="evenodd" clip-rule="evenodd" d="M0.653369 17.2545V32.8901H40.0588V17.2547C40.0582 16.5494 39.7778 15.8731 39.2791 15.3744C38.7803 14.8756 38.1041 14.5952 37.3988 14.5946H3.31316C2.60792 14.5953 1.93178 14.8758 1.43311 15.3745C0.934453 15.8731 0.654021 16.5493 0.653369 17.2545ZM18.9769 35.7047H0.653369V51.3401H0.652985C0.653779 52.0454 0.934352 52.7216 1.43313 53.2202C1.93191 53.7189 2.60816 53.9994 3.31347 54H18.9769V35.7047ZM21.7915 35.7047V43.445H40.0588V35.7047H21.7915ZM40.0588 46.2596H21.7915V54H37.3988C38.104 53.9994 38.7802 53.719 39.2789 53.2203C39.7776 52.7216 40.058 52.0454 40.0586 51.3401L40.0588 46.2596Z" fill="#E5E6FA"/>
</g>
<path d="M22.3851 31.5L25.9281 45.6718C26.0277 46.0704 26.0775 46.2697 26.1365 46.4437C26.7123 48.1435 28.243 49.3387 30.0318 49.485C30.2149 49.5 30.4203 49.5 30.8312 49.5C31.3456 49.5 31.6029 49.5 31.8196 49.479C33.9614 49.2713 35.6564 47.5762 35.8641 45.4344C35.8851 45.2177 35.8851 44.9605 35.8851 44.446V12.375M55.0101 30.375C59.3594 30.375 62.8851 26.8493 62.8851 22.5C62.8851 18.1508 59.3594 14.625 55.0101 14.625M36.4476 12.375H28.0101C22.4182 12.375 17.8851 16.9081 17.8851 22.5C17.8851 28.0919 22.4183 32.625 28.0101 32.625H36.4476C40.4221 32.625 45.2839 34.7555 49.0348 36.8002C51.223 37.9931 52.3171 38.5895 53.0337 38.5017C53.6982 38.4203 54.2006 38.122 54.5901 37.5775C55.0101 36.9903 55.0101 35.8155 55.0101 33.4659V11.5342C55.0101 9.1845 55.0101 8.00968 54.5901 7.42252C54.2006 6.87804 53.6982 6.57969 53.0337 6.4983C52.3171 6.41054 51.223 7.00696 49.0348 8.19981C45.2839 10.2445 40.4221 12.375 36.4476 12.375Z" stroke="#5D00A7" stroke-width="2.91892" stroke-linecap="round" stroke-linejoin="round"/>
<defs>
<clipPath id="clip0_10_3504">
<rect width="39.4054" height="39.4054" fill="white" transform="translate(0.614868 14.5946)"/>
</clipPath>
</defs>
</svg>
