<svg width="68" height="54" viewBox="0 0 68 54" fill="none" xmlns="http://www.w3.org/2000/svg">
<g clip-path="url(#clip0_30_1085)">
<path fill-rule="evenodd" clip-rule="evenodd" d="M8.33342 6.56754H-1.51948C-4.78276 6.56754 -7.43121 9.21599 -7.43121 12.4793V55.832C-7.43121 59.0953 -4.78276 61.7437 -1.51948 61.7437H8.33342V6.56754ZM47.745 49.9203H30.0098V61.7437H41.8333C45.0965 61.7437 47.745 59.0953 47.745 55.832V49.9203ZM26.0686 61.7437H12.2746V49.9203H26.0686V61.7437ZM12.2746 6.56754V45.9791H47.745V12.4793C47.745 9.21599 45.0965 6.56754 41.8333 6.56754H12.2746Z" fill="#E5E6FA"/>
</g>
<path d="M23.6708 49.5V38.25M23.6708 15.75V4.5M18.0458 10.125H29.2958M18.0458 43.875H29.2958M42.7958 6.75L38.8939 16.8949C38.2594 18.5447 37.9421 19.3696 37.4488 20.0634C37.0115 20.6784 36.4742 21.2157 35.8593 21.6529C35.1654 22.1463 34.3405 22.4636 32.6908 23.0981L22.5458 27L32.6908 30.9019C34.3405 31.5364 35.1654 31.8537 35.8593 32.3471C36.4742 32.7843 37.0115 33.3216 37.4488 33.9366C37.9421 34.6304 38.2594 35.4553 38.8939 37.1051L42.7958 47.25L46.6977 37.1051C47.3323 35.4553 47.6495 34.6304 48.1429 33.9366C48.5802 33.3216 49.1174 32.7843 49.7324 32.3471C50.4262 31.8537 51.2511 31.5364 52.9009 30.9019L63.0458 27L52.9009 23.0981C51.2511 22.4636 50.4262 22.1463 49.7324 21.6529C49.1174 21.2157 48.5802 20.6784 48.1429 20.0634C47.6495 19.3696 47.3323 18.5447 46.6977 16.8949L42.7958 6.75Z" stroke="#5D00A7" stroke-width="2.91892" stroke-linecap="round" stroke-linejoin="round"/>
<defs>
<clipPath id="clip0_30_1085">
<rect width="39.4054" height="39.4054" fill="white" transform="translate(0.454163 14.5946)"/>
</clipPath>
</defs>
</svg>
