<svg width="68" height="54" viewBox="0 0 68 54" fill="none" xmlns="http://www.w3.org/2000/svg">
<g clip-path="url(#clip0_30_1078)">
<path fill-rule="evenodd" clip-rule="evenodd" d="M0.516541 17.2546V51.3401C0.517335 52.0453 0.797801 52.7213 1.29642 53.22C1.79503 53.7187 2.47107 53.9992 3.17625 54H24.0893V14.5946H3.17625C2.47107 14.5955 1.79503 14.876 1.29642 15.3747C0.797801 15.8733 0.517335 16.5494 0.516541 17.2546ZM26.9039 14.5946V25.6774H39.9219V17.2546C39.9213 16.5493 39.6409 15.8731 39.1421 15.3744C38.6434 14.8757 37.9672 14.5952 37.2619 14.5946L26.9039 14.5946ZM39.9219 28.4922H26.9039V40.1026H39.9219V28.4922ZM39.9219 42.9173H26.9039V54H37.2619C37.9672 53.9994 38.6434 53.719 39.1421 53.2203C39.6408 52.7216 39.9212 52.0454 39.9218 51.3402L39.9219 42.9173Z" fill="#E5E6FA"/>
</g>
<path d="M20.272 17.55C20.272 13.7696 20.272 11.8795 21.0077 10.4356C21.6548 9.16547 22.6874 8.13285 23.9575 7.48571C25.4014 6.75 27.2916 6.75 31.072 6.75H49.972C53.7523 6.75 55.6425 6.75 57.0864 7.48571C58.3565 8.13285 59.3891 9.16547 60.0363 10.4356C60.772 11.8795 60.772 13.7696 60.772 17.55V29.7C60.772 33.4804 60.772 35.3705 60.0363 36.8144C59.3891 38.0845 58.3565 39.1171 57.0864 39.7643C55.6425 40.5 53.7523 40.5 49.972 40.5H44.3104C42.9063 40.5 42.2042 40.5 41.5327 40.6378C40.9369 40.7601 40.3604 40.9623 39.8188 41.239C39.2084 41.5509 38.6601 41.9895 37.5637 42.8666L32.1964 47.1604C31.2602 47.9094 30.7921 48.2839 30.3982 48.2843C30.0556 48.2847 29.7315 48.1289 29.5177 47.8611C29.272 47.5532 29.272 46.9538 29.272 45.7549V40.5C27.1795 40.5 26.1333 40.5 25.2749 40.27C22.9456 39.6458 21.1261 37.8264 20.502 35.497C20.272 34.6387 20.272 33.5924 20.272 31.5V17.55Z" stroke="#5D00A7" stroke-width="2.91892" stroke-linecap="round" stroke-linejoin="round"/>
<path fill-rule="evenodd" clip-rule="evenodd" d="M40.515 17.3233C38.4907 14.9859 35.115 14.3571 32.5786 16.4975C30.0422 18.6379 29.6852 22.2165 31.677 24.7479C32.911 26.3162 36.0082 29.1806 38.1864 31.1332C38.9865 31.8504 39.3865 32.209 39.8666 32.3535C40.2785 32.4774 40.7516 32.4774 41.1635 32.3535C41.6436 32.209 42.0436 31.8504 42.8437 31.1332C45.0219 29.1806 48.1191 26.3162 49.3531 24.7479C51.3449 22.2165 51.0314 18.6154 48.4515 16.4975C45.8715 14.3797 42.5394 14.9859 40.515 17.3233Z" stroke="#5D00A7" stroke-width="2.91892" stroke-linecap="round" stroke-linejoin="round"/>
<defs>
<clipPath id="clip0_30_1078">
<rect width="39.4054" height="39.4054" fill="white" transform="translate(0.478027 14.5946)"/>
</clipPath>
</defs>
</svg>
