<svg width="68" height="54" viewBox="0 0 68 54" fill="none" xmlns="http://www.w3.org/2000/svg">
<g clip-path="url(#clip0_30_1096)">
<path fill-rule="evenodd" clip-rule="evenodd" d="M8.33323 6.56754H-1.51966C-4.78294 6.56754 -7.4314 9.21599 -7.4314 12.4793V55.832C-7.4314 59.0953 -4.78294 61.7437 -1.51966 61.7437H8.33323V6.56754ZM47.7448 49.9203H30.0096V61.7437H41.8331C45.0963 61.7437 47.7448 59.0953 47.7448 55.832V49.9203ZM26.0684 61.7437H12.2744V49.9203H26.0684V61.7437ZM12.2744 6.56754V45.9791H47.7448V12.4793C47.7448 9.21599 45.0963 6.56754 41.8331 6.56754H12.2744Z" fill="#E5E6FA"/>
</g>
<path d="M18.0457 4.5H20.9845C21.5381 4.5 21.8148 4.5 22.0376 4.60179C22.2338 4.69149 22.4002 4.83576 22.5167 5.01738C22.649 5.22347 22.6882 5.49747 22.7664 6.04544L23.8314 13.5M23.8314 13.5L26.1981 30.8957C26.4985 33.1032 26.6486 34.2069 27.1764 35.0378C27.6414 35.7699 28.3081 36.352 29.0962 36.7141C29.9906 37.125 31.1045 37.125 33.3324 37.125H52.5876C54.7084 37.125 55.7687 37.125 56.6353 36.7434C57.3994 36.407 58.0548 35.8646 58.5283 35.177C59.0652 34.3971 59.2637 33.3555 59.6605 31.2722L62.6386 15.6368C62.7783 14.9036 62.8481 14.5369 62.7469 14.2504C62.6582 13.999 62.483 13.7873 62.2526 13.653C61.9901 13.5 61.6169 13.5 60.8704 13.5H23.8314ZM36.0457 47.25C36.0457 48.4926 35.0383 49.5 33.7957 49.5C32.553 49.5 31.5457 48.4926 31.5457 47.25C31.5457 46.0074 32.553 45 33.7957 45C35.0383 45 36.0457 46.0074 36.0457 47.25ZM54.0457 47.25C54.0457 48.4926 53.0383 49.5 51.7957 49.5C50.553 49.5 49.5457 48.4926 49.5457 47.25C49.5457 46.0074 50.553 45 51.7957 45C53.0383 45 54.0457 46.0074 54.0457 47.25Z" stroke="#5D00A7" stroke-width="2.91892" stroke-linecap="round" stroke-linejoin="round"/>
<defs>
<clipPath id="clip0_30_1096">
<rect width="39.4054" height="39.4054" fill="white" transform="translate(0.454102 14.5946)"/>
</clipPath>
</defs>
</svg>
