<svg width="122" height="42" viewBox="0 0 122 42" fill="none" xmlns="http://www.w3.org/2000/svg">
<g opacity="0.8" clip-path="url(#clip0_6_3255)">
<path d="M15.1224 1.39136H16.1969C19.9271 1.47345 23.5964 2.99218 26.2319 5.68075C25.2588 6.6864 24.2654 7.65099 23.3126 8.65664C21.8327 7.3021 20.0487 6.2554 18.1025 5.88599C15.2238 5.27027 12.1221 5.82441 9.70958 7.4868C7.07411 9.23129 5.2901 12.1866 4.90493 15.3472C4.47919 18.4669 5.35093 21.7506 7.35794 24.1724C9.28385 26.5325 12.2234 28.0102 15.2644 28.1129C18.1025 28.277 21.0624 27.3945 23.1301 25.3832C24.752 23.9671 25.5021 21.8121 25.7454 19.7187C22.3801 19.7187 19.0148 19.7392 15.6496 19.7187V15.491H29.8202C30.55 20.0266 29.4958 25.1369 26.09 28.3796C23.8195 30.6783 20.6772 32.0328 17.474 32.2996C14.3723 32.6074 11.1693 32.0123 8.41212 30.4935C5.10766 28.708 2.47219 25.691 1.17473 22.1405C-0.0416371 18.8773 -0.0619098 15.1831 1.07337 11.8994C2.10728 8.90292 4.09402 6.2554 6.64838 4.4083C9.10139 2.58172 12.0815 1.57607 15.1224 1.39136Z" fill="black"/>
<path d="M96.4161 2.45837H100.755V31.7658C99.3151 31.7658 97.8555 31.7863 96.4161 31.7452C96.4364 21.9967 96.4161 12.2275 96.4161 2.45837Z" fill="black"/>
<path d="M39.47 12.6176C42.146 12.1045 45.0451 12.6792 47.2548 14.3005C49.2618 15.7371 50.6606 17.9947 51.0864 20.4575C51.6337 23.3102 50.9444 26.4298 49.1199 28.6874C47.1534 31.2117 43.9301 32.5663 40.7878 32.3611C37.9091 32.1969 35.1114 30.7397 33.4085 28.359C31.4825 25.732 31.0163 22.12 32.0705 19.0415C33.1247 15.7371 36.1048 13.2127 39.47 12.6176ZM40.0782 16.5171C38.9835 16.8043 37.9698 17.4406 37.2401 18.3436C35.2735 20.7243 35.3952 24.6032 37.5644 26.8197C38.801 28.0922 40.6661 28.6874 42.3893 28.3385C43.9909 28.0512 45.3897 26.9635 46.16 25.5267C47.498 23.0845 47.1129 19.7187 45.0654 17.81C43.7476 16.5786 41.8217 16.0655 40.0782 16.5171Z" fill="black"/>
<path d="M60.9593 12.6175C64.0205 12.0224 67.3655 12.8844 69.6563 15.0598C73.3865 18.4461 73.792 24.7879 70.6091 28.6873C68.6832 31.1501 65.5612 32.5046 62.4797 32.361C59.5402 32.2789 56.6412 30.8013 54.8978 28.3589C52.9313 25.6704 52.5056 21.9761 53.6205 18.8361C54.7356 15.6345 57.6548 13.1921 60.9593 12.6175ZM61.5675 16.517C60.4728 16.8043 59.4591 17.4405 58.7293 18.323C56.7831 20.6626 56.8642 24.48 58.9523 26.717C60.189 28.0511 62.1148 28.7079 63.8989 28.3384C65.4801 28.0305 66.8992 26.9634 67.6696 25.5268C68.9873 23.0639 68.6021 19.6981 66.5343 17.7894C65.2166 16.558 63.2907 16.0654 61.5675 16.517Z" fill="black"/>
<path d="M79.1842 13.8078C81.5156 12.3301 84.6173 11.9196 87.1312 13.1921C87.9219 13.541 88.5706 14.1362 89.199 14.7313C89.2193 14.1772 89.199 13.6026 89.2193 13.028C90.5776 13.0485 91.9359 13.028 93.3144 13.0485V31.1501C93.2942 33.8796 92.6049 36.7735 90.6587 38.7642C88.53 40.9602 85.2661 41.6375 82.3265 41.186C79.1842 40.714 76.4474 38.3947 75.2311 35.46C76.4474 34.8647 77.7247 34.3927 78.9816 33.8386C79.6911 35.5215 81.1305 36.9581 82.9347 37.2865C84.739 37.6149 86.8271 37.1634 88.0029 35.6446C89.2599 34.0849 89.2599 31.9505 89.199 30.0417C88.2665 30.9654 87.192 31.7862 85.8946 32.0941C83.0767 32.8945 79.9749 31.9094 77.8057 29.9802C75.6163 28.051 74.3188 25.0751 74.4404 22.1197C74.5013 18.7745 76.3664 15.5522 79.1842 13.8078ZM83.3807 16.4347C82.1441 16.64 80.9886 17.3378 80.1979 18.3025C78.2923 20.601 78.2923 24.2747 80.2182 26.5322C81.3129 27.8663 83.0767 28.6051 84.7796 28.4205C86.3811 28.2562 87.861 27.2301 88.6516 25.814C89.9897 23.4127 89.7667 20.1495 87.9623 18.0561C86.8474 16.7631 85.0634 16.127 83.3807 16.4347Z" fill="black"/>
<path d="M105.965 14.8545C108.397 12.5559 112.148 11.776 115.27 12.9869C118.23 14.1157 120.116 16.9684 121.068 19.9033C116.669 21.7503 112.29 23.5769 107.891 25.4241C108.499 26.5939 109.431 27.6611 110.688 28.0921C112.452 28.7283 114.56 28.5026 116.04 27.3122C116.629 26.8607 117.094 26.2654 117.54 25.6908C118.655 26.4502 119.771 27.1891 120.885 27.9484C119.304 30.3497 116.649 32.0326 113.79 32.2993C110.627 32.6893 107.262 31.4579 105.215 28.9541C101.849 25.0136 102.174 18.405 105.965 14.8545ZM108.134 18.6513C107.445 19.6569 107.161 20.8884 107.181 22.0993C110.121 20.8678 113.061 19.6364 116 18.3845C115.513 17.2352 114.337 16.5374 113.142 16.3527C111.215 16.0038 109.208 17.0505 108.134 18.6513Z" fill="black"/>
</g>
<defs>
<clipPath id="clip0_6_3255">
<rect width="122" height="41.0364" fill="white" transform="translate(0 0.382568)"/>
</clipPath>
</defs>
</svg>
