<svg width="187" height="57" viewBox="0 0 513 194" fill="none" xmlns="http://www.w3.org/2000/svg">
<path d="M21.3351 193.296H100.605C111.825 193.296 121.095 184.036 121.095 172.806V171.126C121.095 159.906 111.835 150.636 100.605 150.636H43.6451V20.7164C43.6451 9.49643 34.3851 0.226425 23.1551 0.226425H21.4751C10.2551 0.226425 0.985148 9.48643 0.985148 20.7164V172.816C0.845148 184.036 10.1051 193.296 21.3351 193.296ZM512.985 97.8864V96.2064C512.985 84.9864 503.725 75.7164 492.495 75.7164H435.385V43.1664H492.495C503.715 43.1664 512.985 33.9064 512.985 22.6764V20.9964C512.985 9.77643 503.725 0.506424 492.495 0.506424H413.225C402.005 0.506424 392.735 9.76643 392.735 20.9964V173.096C392.735 184.316 401.995 193.586 413.225 193.586H492.495C503.715 193.586 512.985 184.326 512.985 173.096V171.416C512.985 160.196 503.725 150.926 492.495 150.926H435.385V118.376H492.495C503.725 118.516 512.985 109.256 512.985 97.8864ZM360.465 187.266C364.115 183.476 366.355 178.426 366.355 172.816V20.5764C366.355 9.35643 357.095 0.0864258 345.865 0.0864258H344.185C332.965 0.0864258 323.695 9.34643 323.695 20.5764V109.956L249.615 10.4764C246.105 4.30643 239.375 0.0964355 231.795 0.0964355H230.115C218.895 0.0964355 209.625 9.35643 209.625 20.5864V172.686C209.625 183.906 218.885 193.176 230.115 193.176H231.795C243.015 193.176 252.285 183.916 252.285 172.686V81.7664L326.935 183.756C327.355 184.456 327.915 185.156 328.475 185.856C330.575 188.666 333.385 190.626 336.475 191.746C338.865 192.726 341.525 193.286 344.195 193.286H345.875C349.385 193.286 352.605 192.446 355.415 190.896C357.515 189.936 359.205 188.666 360.465 187.266ZM158.275 193.296H159.955C171.175 193.296 180.445 184.036 180.445 172.806V20.5764C180.445 9.35643 171.185 0.0864258 159.955 0.0864258H158.275C147.055 0.0864258 137.785 9.34643 137.785 20.5764V172.676C137.795 184.036 147.055 193.296 158.275 193.296Z" fill="#3E3D3C"/>
</svg>
