<svg width="650" height="120" viewBox="0 0 650 120" fill="none" xmlns="http://www.w3.org/2000/svg">
<path fill-rule="evenodd" clip-rule="evenodd" d="M92.6086 65.6919H92.3231L75.3873 0H54.9786L37.7573 64.8938H37.4818L21.7949 0H0L26.2302 95.3263H48.3106L64.8335 30.4475H65.1196L81.9181 95.3263H103.586L130.229 0H108.857L92.6086 65.6919ZM196.734 32.2499C194.806 29.8035 192.141 27.8869 188.753 26.5045C185.377 25.1322 181.057 24.4482 175.776 24.4482C172.069 24.4482 168.282 25.3519 164.396 27.1735C160.5 28.9952 157.303 31.9199 154.809 35.9337H154.393V0H134.675V95.3263H154.393V59.1431C154.393 52.1352 155.59 47.0637 158.004 43.994C160.397 40.9397 164.301 39.3868 169.668 39.3868C174.389 39.3868 177.66 40.7899 179.523 43.6043C181.374 46.4 182.306 50.6522 182.306 56.3479V95.3258H202.017V52.8736C202.017 48.6108 201.627 44.7127 200.83 41.1786C200.059 37.6807 198.691 34.7103 196.734 32.2499ZM277.975 79.9778V44.074C277.975 39.8762 277.001 36.517 275.042 33.9815C273.124 31.4508 270.609 29.4745 267.57 28.042C264.512 26.6244 261.133 25.6611 257.421 25.1717C253.725 24.6924 250.062 24.4482 246.453 24.4482C242.484 24.4482 238.515 24.8177 234.575 25.5811C230.648 26.3398 227.102 27.6027 223.959 29.3748C220.813 31.1661 218.21 33.5278 216.191 36.4573C214.137 39.3873 212.983 43.0861 212.707 47.5285H232.439C232.786 43.8047 234.1 41.1194 236.335 39.5323C238.536 37.9249 241.583 37.1263 245.489 37.1263C247.247 37.1263 248.876 37.2357 250.413 37.4558C251.934 37.6807 253.281 38.1297 254.454 38.7886C255.599 39.4624 256.53 40.3906 257.218 41.5987C257.917 42.7918 258.244 44.4189 258.244 46.4655C258.347 48.4268 257.748 49.9142 256.453 50.9325C255.142 51.971 253.385 52.7446 251.184 53.2734C248.949 53.8076 246.41 54.2074 243.529 54.4767C240.605 54.7539 237.69 55.1117 234.788 55.5498C231.824 55.9891 228.893 56.5931 225.968 57.3416C223.059 58.1056 220.466 59.2336 218.2 60.7557C215.923 62.2682 214.062 64.2898 212.622 66.8306C211.202 69.3661 210.494 72.6005 210.494 76.5185C210.494 80.0722 211.108 83.1419 212.367 85.7179C213.618 88.3035 215.352 90.4441 217.576 92.1314C219.788 93.8187 222.401 95.0715 225.358 95.8802C228.31 96.6687 231.507 97.0782 234.925 97.0782C239.369 97.0782 243.732 96.4486 247.976 95.2059C252.23 93.9434 255.947 91.7865 259.093 88.6523C259.182 89.7971 259.344 90.9356 259.578 92.0615C259.801 93.1694 260.107 94.2676 260.478 95.3258H280.472C279.54 93.9126 278.894 91.7865 278.515 88.9215C278.152 85.9531 277.971 82.9667 277.975 79.9778ZM258.244 68.6315C258.244 69.7004 258.14 71.1281 257.917 72.9045C257.683 74.6862 257.057 76.4385 256.032 78.1663C255.004 79.9075 253.427 81.405 251.298 82.6429C249.183 83.8861 246.167 84.5195 242.302 84.5195C240.758 84.5177 239.217 84.3823 237.698 84.1149C236.215 83.8457 234.925 83.3765 233.825 82.7176C232.701 82.0538 231.824 81.1406 231.17 79.9778C230.544 78.8199 230.194 77.3975 230.194 75.7049C230.194 73.9328 230.544 72.4604 231.17 71.2976C231.824 70.1498 232.68 69.1913 233.752 68.4374C234.798 67.6841 236.057 67.0748 237.508 66.6249C238.927 66.1808 240.386 65.8321 241.868 65.557C243.446 65.3032 245.014 65.0778 246.589 64.8933C248.168 64.7132 249.679 64.4892 251.111 64.2194C252.473 63.9729 253.816 63.6411 255.132 63.2262C256.37 62.8168 257.421 62.2677 258.244 61.5587V68.6315ZM314.757 5.61534H295.048V26.3099H283.119V38.9784H295.048V79.7182C295.048 83.1968 295.653 85.9872 296.847 88.1181C298.064 90.2596 299.684 91.9175 301.792 93.0653C303.865 94.2185 306.279 95.0021 309.01 95.4116C311.73 95.8008 314.622 96.0002 317.679 96.0002C319.636 96.0002 321.616 95.9602 323.659 95.8807C325.681 95.7757 327.535 95.6105 329.206 95.3268V80.6512C328.239 80.8315 327.264 80.9648 326.283 81.0505C325.279 81.1406 324.209 81.1806 323.099 81.1806C319.763 81.1806 317.531 80.6512 316.428 79.5732C315.34 78.515 314.757 76.3735 314.757 73.1598V38.9784H329.206V26.3099H314.757V5.61534ZM396.272 65.0975C394.99 62.9117 393.256 61.09 391.138 59.6122C389.002 58.1494 386.565 56.977 383.847 56.0782C381.114 55.1852 378.308 54.4458 375.44 53.8071C372.717 53.2003 369.986 52.623 367.249 52.0755C364.572 51.5413 362.166 50.932 360.096 50.2832C358.009 49.6094 356.334 48.7313 355.034 47.6778C353.731 46.5946 353.087 45.2319 353.087 43.5249C353.087 42.0972 353.456 40.9792 354.217 40.1209C354.928 39.2871 355.846 38.6383 356.898 38.1894C357.975 37.74 359.141 37.4553 360.444 37.3156C361.757 37.1957 362.954 37.1259 364.051 37.1259C367.587 37.1259 370.623 37.7597 373.231 39.0675C375.814 40.3603 377.252 42.8211 377.538 46.465H396.272C395.901 42.2022 394.78 38.6585 392.875 35.848C390.969 33.048 388.587 30.7967 385.732 29.1094C382.864 27.4226 379.59 26.2198 375.929 25.5108C372.256 24.7922 368.497 24.4478 364.625 24.4478C360.719 24.4478 356.93 24.7724 353.233 25.4458C349.519 26.11 346.194 27.2631 343.232 28.9052C340.279 30.5573 337.885 32.7932 336.077 35.6433C334.265 38.5034 333.377 42.1526 333.377 46.5946C333.377 49.6296 334.042 52.195 335.324 54.2763C336.604 56.3874 338.332 58.1051 340.448 59.4827C342.577 60.8655 345.011 61.9878 347.741 62.8168C350.5 63.6771 353.297 64.418 356.125 65.0373C363.185 66.4399 368.667 67.8676 372.607 69.3054C376.534 70.7177 378.502 72.8539 378.502 75.704C378.502 77.3965 378.078 78.7987 377.253 79.907C376.433 81.0134 375.365 81.9279 374.128 82.5827C372.883 83.2566 371.483 83.7459 369.96 84.0504C368.436 84.3548 366.974 84.5195 365.599 84.5195C363.642 84.5195 361.758 84.2951 359.967 83.8461C358.148 83.4068 356.558 82.7176 355.17 81.7692C353.787 80.841 352.653 79.6532 351.765 78.1663C350.906 76.7034 350.452 74.9511 350.452 72.9045H331.694C331.896 77.5362 332.966 81.3848 334.964 84.4545C336.968 87.5093 339.496 89.9952 342.608 91.8669C345.72 93.7387 349.256 95.0715 353.234 95.8802C357.253 96.6778 361.346 97.0792 365.45 97.0782C369.527 97.0782 373.517 96.688 377.466 95.94C381.402 95.1866 384.895 93.8683 387.932 91.9869C391.003 90.1146 393.471 87.6489 395.366 84.5792C397.26 81.5144 398.211 77.7063 398.211 73.1593C398.209 69.9653 397.575 67.2747 396.272 65.0975ZM435.428 0L397.957 95.3263H419.876L427.647 74.0928H464.717L472.22 95.3263H494.851L457.781 0H435.428ZM433.352 58.4846L446.255 23.5095H446.54L459.033 58.4846H433.352ZM563.028 35.6437C560.363 32.2696 556.976 29.5593 552.9 27.5025C548.825 25.4665 543.956 24.4482 538.313 24.4482C533.867 24.4482 529.802 25.2815 526.098 26.9838C522.394 28.6658 519.345 31.3809 516.933 35.1149H516.666V26.3099H497.908V119.5H517.642V86.7911H517.897C520.287 90.1753 523.389 92.7354 527.134 94.4627C530.882 96.2001 534.991 97.0791 539.424 97.0791C544.706 97.0791 549.303 96.0907 553.227 94.1289C557.186 92.1723 560.456 89.5467 563.103 86.2473C565.741 82.9632 567.687 79.1898 569.011 74.9116C570.301 70.6392 570.936 66.1818 570.936 61.5596C570.936 56.6533 570.301 51.9715 569.011 47.4693C567.687 42.9714 565.72 39.0381 563.028 35.6437ZM550.4 69.1662C549.84 71.8366 548.898 74.1732 547.543 76.1741C546.198 78.1667 544.451 79.8179 542.264 81.051C540.102 82.2937 537.371 82.9127 534.152 82.9127C531.001 82.9127 528.331 82.2937 526.099 81.051C523.937 79.8596 522.105 78.1872 520.754 76.1741C519.408 74.1732 518.434 71.8366 517.842 69.1662C517.23 66.5064 516.934 63.7753 516.934 61.025C516.934 58.16 517.199 55.4096 517.768 52.745C518.328 50.0746 519.27 47.7183 520.625 45.6572C521.938 43.6255 523.716 41.9537 525.899 40.6608C528.067 39.3782 530.769 38.7192 534.015 38.7192C537.161 38.7192 539.827 39.3782 541.997 40.6608C544.17 41.9537 545.955 43.6357 547.33 45.7367C548.75 47.8281 549.723 50.209 550.328 52.8746C550.931 55.5525 551.233 58.285 551.229 61.025C551.232 63.7583 550.954 66.4853 550.4 69.1662ZM647.594 47.4688C646.28 42.9714 644.312 39.0381 641.621 35.6437C638.925 32.2696 635.571 29.5593 631.493 27.5025C627.408 25.4665 622.549 24.4482 616.896 24.4482C612.473 24.4482 608.377 25.2815 604.681 26.9838C600.987 28.6658 597.928 31.3809 595.516 35.1149H595.251V26.3099H576.494V119.5H596.214V86.7911H596.49C598.891 90.1753 601.992 92.7354 605.729 94.4627C609.475 96.2001 613.573 97.0791 618.03 97.0791C623.289 97.0791 627.896 96.0907 631.823 94.1289C635.757 92.1723 639.049 89.5467 641.688 86.2473C644.343 82.9632 646.28 79.1898 647.593 74.9116C648.893 70.6392 649.54 66.1818 649.54 61.5596C649.54 56.6528 648.894 51.971 647.594 47.4688ZM628.973 69.1662C628.433 71.8366 627.47 74.1732 626.125 76.1741C624.804 78.1667 623.024 79.8179 620.856 81.051C618.686 82.2937 615.974 82.9127 612.735 82.9127C609.604 82.9127 606.892 82.2937 604.681 81.051C602.456 79.8179 600.692 78.1667 599.347 76.1741C598 74.1732 597.017 71.8366 596.415 69.1662C595.813 66.4911 595.512 63.7618 595.516 61.025C595.516 58.16 595.802 55.4096 596.35 52.745C596.903 50.0746 597.865 47.7183 599.21 45.6572C600.542 43.6255 602.312 41.9537 604.482 40.6608C606.648 39.3782 609.371 38.7192 612.6 38.7192C615.743 38.7192 618.398 39.3782 620.582 40.6608C622.762 41.9537 624.53 43.6357 625.925 45.7367C627.322 47.8281 628.319 50.209 628.911 52.8746C629.526 55.5503 629.822 58.2602 629.822 61.025C629.822 63.7749 629.546 66.5059 628.973 69.1662Z" fill="#3E3D3C"/>
</svg>
