<svg width="256" height="54" viewBox="0 0 256 54" fill="none" xmlns="http://www.w3.org/2000/svg">
<g opacity="0.25">
<path d="M22.1736 34.6555C23.7551 36.9934 25.2335 39.2282 26.7463 41.4974C26.815 41.4974 26.8838 41.4974 26.9869 41.463C28.8435 34.4492 30.7345 27.4355 32.6254 20.3529C26.0243 20.3529 19.5262 20.3529 12.7875 20.3529C14.2659 22.6565 15.6755 24.8225 17.1195 27.0229C14.5066 29.7734 11.8936 32.4895 8.24918 33.8647C4.94858 35.1025 1.02913 33.1427 0.169597 29.8765C-0.208596 28.3981 0.0664539 26.9541 0.788459 25.6476C3.91715 19.9747 7.08022 14.3018 10.2089 8.62895C14.8504 0.27432 26.2993 0.58375 31.2502 7.8038C32.5567 9.72915 37.0606 11.0013 38.1952 13.0297C41.7708 19.4934 41.8052 26.8166 45.3809 33.2459C46.3779 35.0337 47.5125 36.7528 47.9938 38.7812C49.5754 45.3481 44.8308 52.6025 38.0921 53.4964C34.3445 53.9777 30.5282 53.8746 26.7463 53.9434C25.1647 53.9777 23.5488 53.909 22.0017 53.6339C16.5007 52.74 14.6097 48.2017 15.7099 43.4915C16.3631 40.6035 18.1166 38.3687 20.1795 36.3746C20.7983 35.8245 21.4516 35.2744 22.1736 34.6555Z" fill="black"/>
</g>
<path d="M26.9869 32.2492C28.5685 34.5872 30.0468 36.8219 31.5596 39.0911C31.6284 39.0911 31.6971 39.0911 31.8003 39.0567C33.6569 32.043 35.5478 25.0292 37.4388 17.9467C30.8376 17.9467 24.3396 17.9467 17.6009 17.9467C19.0792 20.2502 20.4889 22.4162 21.9329 24.6166C19.3199 27.3671 16.7069 30.0832 13.0625 31.4585C9.76194 32.6962 5.84248 30.7365 4.98295 27.4703C4.60476 25.9919 4.87981 24.5479 5.60181 23.2414C8.7305 17.5685 11.8936 11.8956 15.0223 6.22269C19.6637 -2.09756 31.1127 -1.78813 36.0292 5.43192C37.3357 7.35726 38.3327 9.4889 39.4673 11.5174C43.0429 17.9811 46.5842 24.4447 50.1942 30.9084C51.1913 32.6962 52.3259 34.4153 52.8072 36.4438C54.3887 43.0106 49.6441 50.265 42.9054 51.1589C39.1579 51.6402 35.3415 51.5371 31.5596 51.6059C29.9781 51.6402 28.3622 51.5715 26.815 51.2964C21.314 50.4025 19.4231 45.8642 20.5233 41.154C21.1765 38.266 22.9299 36.0312 24.9928 34.0371C25.6117 33.4182 26.2649 32.8681 26.9869 32.2492Z" fill="url(#paint0_linear_65_3174)"/>
<path d="M67.0753 25.3036C67.0753 28.8448 69.9633 31.6985 73.4702 31.6985H83.4407V35.2741H73.4702C67.9692 35.2741 63.4996 30.8045 63.4996 25.3036C63.4996 19.8026 67.9692 15.333 73.4702 15.333H83.4407V18.9087H73.4702C69.9289 18.9087 67.0753 21.7623 67.0753 25.3036Z" fill="white"/>
<path d="M102.729 31.7334V35.309H92.6206C91.6235 35.309 90.6952 35.0683 89.8357 34.6558C88.598 34.0369 87.5665 33.0055 86.9477 31.7677C86.5351 30.9082 86.2944 29.9799 86.2944 28.9829V15.3679H89.8701V29.2923C90.042 30.53 91.039 31.5271 92.2768 31.699L102.729 31.7334Z" fill="white"/>
<path d="M105.548 35.2746V15.3335H109.123V35.2746H105.548Z" fill="white"/>
<path d="M115.243 25.304C115.243 28.8453 118.131 31.6989 121.638 31.6989H131.609V35.2746H121.638C116.137 35.2746 111.668 30.805 111.668 25.304C111.668 19.803 116.137 15.3335 121.638 15.3335H131.609V18.9091H121.638C118.097 18.9091 115.243 21.7628 115.243 25.304Z" fill="white"/>
<path d="M145.671 23.3443L154.3 35.2745H149.9L143.023 25.751L137.969 30.3237V35.2402H134.428V15.2991H138.004V25.4759L140.926 22.7942L143.573 20.3875L149.109 15.2991H154.369L145.671 23.3443Z" fill="white"/>
<path d="M191.019 15.3335V35.2745H187.444V22.5535L183.937 25.2352L181.049 27.47L178.161 25.2352L174.654 22.5535V35.2402H171.078V15.2991L174.654 18.0496L181.049 23.0005L187.444 18.0839L191.019 15.3335Z" fill="white"/>
<path d="M213.127 25.304C213.127 30.805 208.657 35.2746 203.156 35.2746C197.655 35.2746 193.186 30.805 193.186 25.304C193.186 19.803 197.655 15.3335 203.156 15.3335C208.657 15.3335 213.127 19.803 213.127 25.304ZM209.551 25.304C209.551 21.7628 206.663 18.9091 203.156 18.9091C199.615 18.9091 196.761 21.7972 196.761 25.304C196.761 28.8109 199.649 31.6989 203.156 31.6989C206.697 31.6989 209.551 28.8453 209.551 25.304Z" fill="white"/>
<path d="M231.383 31.7678L233.205 35.3434H229.217L227.395 31.7678L225.504 28.0546L225.435 27.8827C224.816 26.8513 223.682 26.1637 222.409 26.1637H218.834V35.3434H215.258V15.4023H227.842C229.32 15.4023 230.661 15.9868 231.624 16.9839C232.586 17.9809 233.205 19.2874 233.205 20.7658C233.205 22.9318 231.933 24.8228 230.076 25.6479C229.595 25.8886 229.079 26.0261 228.529 26.0605L231.383 31.7678ZM227.842 22.588C228.082 22.588 228.357 22.5192 228.598 22.4161C229.251 22.1411 229.664 21.4878 229.664 20.7658C229.664 20.1126 229.32 19.6656 229.114 19.4593C228.873 19.2187 228.461 18.9436 227.842 18.9436H218.834V22.6224L227.842 22.588Z" fill="white"/>
<path d="M239.634 20.7313V22.5879H252.459V26.1636H239.634V29.8767C239.634 30.8738 240.46 31.6989 241.457 31.6989H256V35.2746H241.457C238.5 35.2746 236.093 32.8679 236.093 29.8767V20.7313C236.093 17.7746 238.5 15.3335 241.457 15.3335H256V18.9091H241.457C240.46 18.9091 239.634 19.7343 239.634 20.7313Z" fill="white"/>
<defs>
<linearGradient id="paint0_linear_65_3174" x1="3.6621" y1="4.24305" x2="52.3245" y2="47.6648" gradientUnits="userSpaceOnUse">
<stop stop-color="#6E07AD"/>
<stop offset="0.7793" stop-color="#CB457A"/>
<stop offset="1" stop-color="#E85A6A"/>
</linearGradient>
</defs>
</svg>
