<svg width="256" height="54" viewBox="0 0 256 54" fill="none" xmlns="http://www.w3.org/2000/svg">
<g opacity="0.25">
<path d="M22.1736 34.6573C23.7551 36.9952 25.2335 39.23 26.7463 41.4992C26.815 41.4992 26.8838 41.4992 26.9869 41.4648C28.8435 34.451 30.7345 27.4373 32.6254 20.3547C26.0243 20.3547 19.5262 20.3547 12.7875 20.3547C14.2659 22.6583 15.6755 24.8243 17.1195 27.0247C14.5066 29.7752 11.8936 32.4913 8.24918 33.8665C4.94858 35.1043 1.02913 33.1445 0.169597 29.8783C-0.208596 28.3999 0.0664538 26.9559 0.788459 25.6494C3.91715 19.9765 7.08022 14.3036 10.2089 8.63075C14.8504 0.27612 26.2993 0.58555 31.2502 7.8056C32.5567 9.73095 37.0606 11.0031 38.1952 13.0315C41.7708 19.4952 41.8052 26.8184 45.3809 33.2477C46.3779 35.0355 47.5125 36.7546 47.9938 38.7831C49.5754 45.3499 44.8308 52.6043 38.0921 53.4982C34.3445 53.9795 30.5282 53.8764 26.7463 53.9452C25.1647 53.9795 23.5488 53.9108 22.0017 53.6357C16.5007 52.7418 14.6097 48.2035 15.7099 43.4933C16.3631 40.6053 18.1166 38.3705 20.1795 36.3764C20.7983 35.8263 21.4516 35.2762 22.1736 34.6573Z" fill="black"/>
</g>
<path d="M26.9869 32.251C28.5684 34.5889 30.0468 36.8237 31.5596 39.0928C31.6283 39.0928 31.6971 39.0928 31.8002 39.0584C33.6568 32.0447 35.5478 25.0309 37.4387 17.9484C30.8375 17.9484 24.3395 17.9484 17.6008 17.9484C19.0792 20.2519 20.4888 22.4179 21.9328 24.6183C19.3198 27.3688 16.7069 30.0849 13.0625 31.4602C9.76188 32.6979 5.84242 30.7382 4.98289 27.472C4.6047 25.9936 4.87975 24.5496 5.60175 23.2431C8.73044 17.5702 11.8935 11.8973 15.0222 6.22439C19.6637 -2.09585 31.1126 -1.78642 36.0291 5.43363C37.3356 7.35897 38.3326 9.49061 39.4672 11.5191C43.0429 17.9828 46.5841 24.4464 50.1942 30.9101C51.1912 32.6979 52.3258 34.417 52.8071 36.4455C54.3887 43.0123 49.6441 50.2667 42.9053 51.1606C39.1578 51.6419 35.3415 51.5388 31.5596 51.6076C29.978 51.6419 28.3621 51.5732 26.8149 51.2981C21.314 50.4042 19.423 45.8659 20.5232 41.1557C21.1764 38.2677 22.9299 36.0329 24.9927 34.0388C25.6116 33.4199 26.2648 32.8698 26.9869 32.251Z" fill="url(#paint0_linear_626_640)"/>
<path d="M67.0753 25.3053C67.0753 28.8466 69.9634 31.7002 73.4702 31.7002H83.4408V35.2759H73.4702C67.9692 35.2759 63.4997 30.8063 63.4997 25.3053C63.4997 19.8043 67.9692 15.3348 73.4702 15.3348H83.4408V18.9104H73.4702C69.929 18.9104 67.0753 21.7641 67.0753 25.3053Z" fill="white"/>
<path d="M102.729 31.7351V35.3108H92.6206C91.6236 35.3108 90.6953 35.0701 89.8358 34.6575C88.598 34.0387 87.5666 33.0072 86.9477 31.7695C86.5352 30.91 86.2945 29.9817 86.2945 28.9846V15.3697H89.8701V29.2941C90.042 30.5318 91.0391 31.5289 92.2768 31.7008L102.729 31.7351Z" fill="white"/>
<path d="M105.548 35.2763V15.3352H109.124V35.2763H105.548Z" fill="white"/>
<path d="M115.243 25.3058C115.243 28.847 118.131 31.7007 121.638 31.7007H131.609V35.2763H121.638C116.137 35.2763 111.668 30.8068 111.668 25.3058C111.668 19.8048 116.137 15.3352 121.638 15.3352H131.609V18.9109H121.638C118.097 18.9109 115.243 21.7645 115.243 25.3058Z" fill="white"/>
<path d="M145.671 23.346L154.3 35.2763H149.9L143.023 25.7527L137.969 30.3254V35.2419H134.428V15.3008H138.004V25.4776L140.926 22.7959L143.574 20.3892L149.109 15.3008H154.369L145.671 23.346Z" fill="white"/>
<path d="M191.019 15.3352V35.2763H187.444V22.5552L183.937 25.2369L181.049 27.4717L178.161 25.2369L174.654 22.5552V35.2419H171.078V15.3008L174.654 18.0513L181.049 23.0022L187.444 18.0857L191.019 15.3352Z" fill="white"/>
<path d="M213.127 25.3058C213.127 30.8068 208.657 35.2763 203.156 35.2763C197.655 35.2763 193.186 30.8068 193.186 25.3058C193.186 19.8048 197.655 15.3352 203.156 15.3352C208.657 15.3352 213.127 19.8048 213.127 25.3058ZM209.551 25.3058C209.551 21.7645 206.663 18.9109 203.156 18.9109C199.615 18.9109 196.761 21.7989 196.761 25.3058C196.761 28.8127 199.649 31.7007 203.156 31.7007C206.697 31.7007 209.551 28.847 209.551 25.3058Z" fill="white"/>
<path d="M231.383 31.7696L233.205 35.3452H229.217L227.395 31.7696L225.504 28.0564L225.435 27.8845C224.816 26.8531 223.682 26.1655 222.41 26.1655H218.834V35.3452H215.258V15.4041H227.842C229.32 15.4041 230.661 15.9886 231.624 16.9857C232.586 17.9827 233.205 19.2892 233.205 20.7676C233.205 22.9336 231.933 24.8246 230.077 25.6497C229.595 25.8904 229.079 26.0279 228.529 26.0623L231.383 31.7696ZM227.842 22.5898C228.082 22.5898 228.357 22.5211 228.598 22.4179C229.251 22.1429 229.664 21.4896 229.664 20.7676C229.664 20.1144 229.32 19.6674 229.114 19.4611C228.873 19.2205 228.461 18.9454 227.842 18.9454H218.834V22.6242L227.842 22.5898Z" fill="white"/>
<path d="M239.634 20.7331V22.5897H252.459V26.1653H239.634V29.8785C239.634 30.8755 240.46 31.7007 241.457 31.7007H256V35.2763H241.457C238.5 35.2763 236.093 32.8696 236.093 29.8785V20.7331C236.093 17.7763 238.5 15.3352 241.457 15.3352H256V18.9109H241.457C240.46 18.9109 239.634 19.736 239.634 20.7331Z" fill="white"/>
<defs>
<linearGradient id="paint0_linear_626_640" x1="3.66203" y1="4.24476" x2="52.3244" y2="47.6666" gradientUnits="userSpaceOnUse">
<stop offset="0.9998" stop-color="#FCFCFC"/>
<stop offset="0.9999" stop-color="#E85A6A"/>
<stop offset="1" stop-color="#CB457A"/>
</linearGradient>
</defs>
</svg>
