<svg width="680" height="542" viewBox="0 0 680 542" fill="none" xmlns="http://www.w3.org/2000/svg">
<path d="M626.027 304.947H429.062C399.263 304.947 375.088 280.772 375.088 250.973C375.088 221.175 399.263 197 429.062 197H626.027C655.825 197 680 221.175 680 250.973C680 280.793 655.846 304.947 626.027 304.947Z" fill="url(#paint0_linear_30_198)"/>
<path d="M519.464 245V232.904H515.12V229.544H528.32V232.904H523.976V245H519.464ZM528.197 245V233.624H532.541L532.661 234.536C533.125 234.264 533.717 234.016 534.437 233.792C535.157 233.568 535.885 233.432 536.621 233.384V236.744C536.205 236.776 535.749 236.832 535.253 236.912C534.773 236.992 534.301 237.096 533.837 237.224C533.389 237.336 533.013 237.464 532.709 237.608V245H528.197ZM540.726 245.24C540.006 245.24 539.334 245.112 538.71 244.856C538.102 244.6 537.614 244.2 537.246 243.656C536.878 243.112 536.694 242.424 536.694 241.592C536.694 240.392 537.094 239.464 537.894 238.808C538.694 238.136 539.902 237.8 541.518 237.8H544.47V237.584C544.47 237.136 544.286 236.808 543.918 236.6C543.55 236.392 542.902 236.288 541.974 236.288C540.662 236.288 539.366 236.488 538.086 236.888V234.176C538.662 233.952 539.382 233.768 540.246 233.624C541.11 233.464 541.99 233.384 542.886 233.384C544.694 233.384 546.126 233.752 547.182 234.488C548.238 235.224 548.766 236.392 548.766 237.992V245H544.83L544.614 244.088C544.214 244.44 543.694 244.72 543.054 244.928C542.43 245.136 541.654 245.24 540.726 245.24ZM542.262 242.6C542.774 242.6 543.206 242.512 543.558 242.336C543.926 242.16 544.23 241.944 544.47 241.688V240.272H542.286C541.294 240.272 540.798 240.664 540.798 241.448C540.798 242.216 541.286 242.6 542.262 242.6ZM550.814 245V233.624H555.038L555.158 234.488C555.59 234.2 556.158 233.944 556.862 233.72C557.582 233.496 558.35 233.384 559.166 233.384C560.59 233.384 561.63 233.736 562.286 234.44C562.942 235.144 563.27 236.232 563.27 237.704V245H558.758V238.16C558.758 237.648 558.646 237.28 558.422 237.056C558.198 236.832 557.806 236.72 557.246 236.72C556.91 236.72 556.558 236.8 556.19 236.96C555.838 237.12 555.55 237.312 555.326 237.536V245H550.814ZM569.739 245.24C568.763 245.24 567.843 245.168 566.979 245.024C566.131 244.896 565.459 244.728 564.963 244.52V241.28C565.523 241.536 566.187 241.736 566.955 241.88C567.739 242.024 568.403 242.096 568.947 242.096C569.523 242.096 569.955 242.08 570.243 242.048C570.547 242.016 570.699 241.88 570.699 241.64C570.699 241.368 570.435 241.16 569.907 241.016C569.379 240.872 568.715 240.664 567.915 240.392C566.875 240.024 566.099 239.592 565.587 239.096C565.075 238.6 564.819 237.88 564.819 236.936C564.819 235.8 565.267 234.928 566.163 234.32C567.059 233.696 568.467 233.384 570.387 233.384C571.123 233.384 571.883 233.44 572.667 233.552C573.451 233.664 574.067 233.792 574.515 233.936V237.104C574.035 236.896 573.507 236.744 572.931 236.648C572.371 236.552 571.859 236.504 571.395 236.504C570.883 236.504 570.427 236.528 570.027 236.576C569.627 236.624 569.427 236.76 569.427 236.984C569.427 237.24 569.651 237.424 570.099 237.536C570.563 237.648 571.179 237.824 571.947 238.064C572.811 238.32 573.483 238.6 573.963 238.904C574.459 239.208 574.803 239.576 574.995 240.008C575.203 240.44 575.307 240.976 575.307 241.616C575.307 242.768 574.835 243.664 573.891 244.304C572.963 244.928 571.579 245.24 569.739 245.24ZM576.994 250.184V233.624H580.906L581.122 234.536C581.586 234.168 582.09 233.888 582.634 233.696C583.194 233.488 583.842 233.384 584.578 233.384C586.274 233.384 587.578 233.816 588.49 234.68C589.418 235.528 589.882 236.976 589.882 239.024C589.882 241.056 589.394 242.6 588.418 243.656C587.442 244.712 586.098 245.24 584.386 245.24C583.25 245.24 582.29 245.024 581.506 244.592V250.184H576.994ZM583.234 241.952C583.89 241.952 584.394 241.72 584.746 241.256C585.098 240.792 585.274 240.072 585.274 239.096C585.274 238.152 585.106 237.512 584.77 237.176C584.45 236.84 583.954 236.672 583.282 236.672C582.61 236.672 582.018 236.896 581.506 237.344V241.376C581.762 241.568 582.018 241.712 582.274 241.808C582.53 241.904 582.85 241.952 583.234 241.952ZM595.124 245.24C594.404 245.24 593.732 245.112 593.108 244.856C592.5 244.6 592.012 244.2 591.644 243.656C591.276 243.112 591.092 242.424 591.092 241.592C591.092 240.392 591.492 239.464 592.292 238.808C593.092 238.136 594.3 237.8 595.916 237.8H598.868V237.584C598.868 237.136 598.684 236.808 598.316 236.6C597.948 236.392 597.3 236.288 596.372 236.288C595.06 236.288 593.764 236.488 592.484 236.888V234.176C593.06 233.952 593.78 233.768 594.644 233.624C595.508 233.464 596.388 233.384 597.284 233.384C599.092 233.384 600.524 233.752 601.58 234.488C602.636 235.224 603.164 236.392 603.164 237.992V245H599.228L599.012 244.088C598.612 244.44 598.092 244.72 597.452 244.928C596.828 245.136 596.052 245.24 595.124 245.24ZM596.66 242.6C597.172 242.6 597.604 242.512 597.956 242.336C598.324 242.16 598.628 241.944 598.868 241.688V240.272H596.684C595.692 240.272 595.196 240.664 595.196 241.448C595.196 242.216 595.684 242.6 596.66 242.6ZM605.213 245V233.624H609.557L609.677 234.536C610.141 234.264 610.733 234.016 611.453 233.792C612.173 233.568 612.901 233.432 613.637 233.384V236.744C613.221 236.776 612.765 236.832 612.269 236.912C611.789 236.992 611.317 237.096 610.853 237.224C610.405 237.336 610.029 237.464 609.725 237.608V245H605.213ZM620.711 245.24C619.383 245.24 618.207 245.024 617.183 244.592C616.175 244.144 615.383 243.48 614.807 242.6C614.247 241.72 613.967 240.632 613.967 239.336C613.967 237.528 614.479 236.088 615.503 235.016C616.527 233.928 618.055 233.384 620.087 233.384C621.943 233.384 623.391 233.856 624.431 234.8C625.487 235.744 626.015 237.032 626.015 238.664V240.656H618.119C618.327 241.264 618.735 241.696 619.343 241.952C619.951 242.208 620.775 242.336 621.815 242.336C622.471 242.336 623.127 242.28 623.783 242.168C624.455 242.04 624.991 241.896 625.391 241.736V244.448C624.271 244.976 622.711 245.24 620.711 245.24ZM618.119 238.208H622.127V237.8C622.127 237.352 621.983 236.984 621.695 236.696C621.423 236.408 620.935 236.264 620.231 236.264C619.447 236.264 618.895 236.432 618.575 236.768C618.271 237.088 618.119 237.568 618.119 238.208ZM627.689 245V233.624H631.913L632.033 234.488C632.465 234.2 633.033 233.944 633.737 233.72C634.457 233.496 635.225 233.384 636.041 233.384C637.465 233.384 638.505 233.736 639.161 234.44C639.817 235.144 640.145 236.232 640.145 237.704V245H635.633V238.16C635.633 237.648 635.521 237.28 635.297 237.056C635.073 236.832 634.681 236.72 634.121 236.72C633.785 236.72 633.433 236.8 633.065 236.96C632.713 237.12 632.425 237.312 632.201 237.536V245H627.689ZM647.046 245.24C645.526 245.24 644.422 244.856 643.734 244.088C643.046 243.32 642.702 242.28 642.702 240.968V236.96H641.214V233.624H642.702V231.296L647.214 230.216V233.624H649.83L649.662 236.96H647.214V240.632C647.214 241.112 647.334 241.456 647.574 241.664C647.814 241.856 648.182 241.952 648.678 241.952C649.142 241.952 649.614 241.872 650.094 241.712V244.712C649.246 245.064 648.23 245.24 647.046 245.24ZM516.08 273V257.544H524.048C525.312 257.544 526.352 257.8 527.168 258.312C528 258.808 528.616 259.488 529.016 260.352C529.416 261.216 529.616 262.176 529.616 263.232C529.616 264.32 529.384 265.288 528.92 266.136C528.456 266.984 527.8 267.648 526.952 268.128C526.104 268.608 525.104 268.848 523.952 268.848H520.592V273H516.08ZM520.592 265.392H522.92C523.624 265.392 524.144 265.192 524.48 264.792C524.832 264.392 525.008 263.872 525.008 263.232C525.008 262.544 524.848 262 524.528 261.6C524.208 261.2 523.712 261 523.04 261H520.592V265.392ZM533.905 273.24C533.185 273.24 532.513 273.112 531.889 272.856C531.281 272.6 530.793 272.2 530.425 271.656C530.057 271.112 529.873 270.424 529.873 269.592C529.873 268.392 530.273 267.464 531.073 266.808C531.873 266.136 533.081 265.8 534.697 265.8H537.649V265.584C537.649 265.136 537.465 264.808 537.097 264.6C536.729 264.392 536.081 264.288 535.153 264.288C533.841 264.288 532.545 264.488 531.265 264.888V262.176C531.841 261.952 532.561 261.768 533.425 261.624C534.289 261.464 535.169 261.384 536.065 261.384C537.873 261.384 539.305 261.752 540.361 262.488C541.417 263.224 541.945 264.392 541.945 265.992V273H538.009L537.793 272.088C537.393 272.44 536.873 272.72 536.233 272.928C535.609 273.136 534.833 273.24 533.905 273.24ZM535.441 270.6C535.953 270.6 536.385 270.512 536.737 270.336C537.105 270.16 537.409 269.944 537.649 269.688V268.272H535.465C534.473 268.272 533.977 268.664 533.977 269.448C533.977 270.216 534.465 270.6 535.441 270.6ZM543.994 273V261.624H548.338L548.458 262.536C548.922 262.264 549.514 262.016 550.234 261.792C550.954 261.568 551.682 261.432 552.418 261.384V264.744C552.002 264.776 551.546 264.832 551.05 264.912C550.57 264.992 550.098 265.096 549.634 265.224C549.186 265.336 548.81 265.464 548.506 265.608V273H543.994ZM558.569 273.24C557.049 273.24 555.945 272.856 555.257 272.088C554.569 271.32 554.225 270.28 554.225 268.968V264.96H552.737V261.624H554.225V259.296L558.737 258.216V261.624H561.353L561.185 264.96H558.737V268.632C558.737 269.112 558.857 269.456 559.097 269.664C559.337 269.856 559.705 269.952 560.201 269.952C560.665 269.952 561.137 269.872 561.617 269.712V272.712C560.769 273.064 559.753 273.24 558.569 273.24ZM562.814 273V261.624H567.038L567.158 262.488C567.59 262.2 568.158 261.944 568.862 261.72C569.582 261.496 570.35 261.384 571.166 261.384C572.59 261.384 573.63 261.736 574.286 262.44C574.942 263.144 575.27 264.232 575.27 265.704V273H570.758V266.16C570.758 265.648 570.646 265.28 570.422 265.056C570.198 264.832 569.806 264.72 569.246 264.72C568.91 264.72 568.558 264.8 568.19 264.96C567.838 265.12 567.55 265.312 567.326 265.536V273H562.814ZM583.422 273.24C582.094 273.24 580.918 273.024 579.894 272.592C578.886 272.144 578.094 271.48 577.518 270.6C576.958 269.72 576.678 268.632 576.678 267.336C576.678 265.528 577.19 264.088 578.214 263.016C579.238 261.928 580.766 261.384 582.798 261.384C584.654 261.384 586.102 261.856 587.142 262.8C588.198 263.744 588.726 265.032 588.726 266.664V268.656H580.83C581.038 269.264 581.446 269.696 582.054 269.952C582.662 270.208 583.486 270.336 584.526 270.336C585.182 270.336 585.838 270.28 586.494 270.168C587.166 270.04 587.702 269.896 588.102 269.736V272.448C586.982 272.976 585.422 273.24 583.422 273.24ZM580.83 266.208H584.838V265.8C584.838 265.352 584.694 264.984 584.406 264.696C584.134 264.408 583.646 264.264 582.942 264.264C582.158 264.264 581.606 264.432 581.286 264.768C580.982 265.088 580.83 265.568 580.83 266.208ZM590.4 273V261.624H594.744L594.864 262.536C595.328 262.264 595.92 262.016 596.64 261.792C597.36 261.568 598.088 261.432 598.824 261.384V264.744C598.408 264.776 597.952 264.832 597.456 264.912C596.976 264.992 596.504 265.096 596.04 265.224C595.592 265.336 595.216 265.464 594.912 265.608V273H590.4ZM604.426 273.24C603.45 273.24 602.53 273.168 601.666 273.024C600.818 272.896 600.146 272.728 599.65 272.52V269.28C600.21 269.536 600.874 269.736 601.642 269.88C602.426 270.024 603.09 270.096 603.634 270.096C604.21 270.096 604.642 270.08 604.93 270.048C605.234 270.016 605.386 269.88 605.386 269.64C605.386 269.368 605.122 269.16 604.594 269.016C604.066 268.872 603.402 268.664 602.602 268.392C601.562 268.024 600.786 267.592 600.274 267.096C599.762 266.6 599.506 265.88 599.506 264.936C599.506 263.8 599.954 262.928 600.85 262.32C601.746 261.696 603.154 261.384 605.074 261.384C605.81 261.384 606.57 261.44 607.354 261.552C608.138 261.664 608.754 261.792 609.202 261.936V265.104C608.722 264.896 608.194 264.744 607.618 264.648C607.058 264.552 606.546 264.504 606.082 264.504C605.57 264.504 605.114 264.528 604.714 264.576C604.314 264.624 604.114 264.76 604.114 264.984C604.114 265.24 604.338 265.424 604.786 265.536C605.25 265.648 605.866 265.824 606.634 266.064C607.498 266.32 608.17 266.6 608.65 266.904C609.146 267.208 609.49 267.576 609.682 268.008C609.89 268.44 609.994 268.976 609.994 269.616C609.994 270.768 609.522 271.664 608.578 272.304C607.65 272.928 606.266 273.24 604.426 273.24ZM611.682 273V256.824H616.194V262.32C616.594 262.048 617.09 261.824 617.682 261.648C618.29 261.472 618.938 261.384 619.626 261.384C621.194 261.384 622.338 261.752 623.058 262.488C623.778 263.208 624.138 264.328 624.138 265.848V273H619.602V266.184C619.602 265.656 619.49 265.28 619.266 265.056C619.058 264.832 618.674 264.72 618.114 264.72C617.778 264.72 617.426 264.8 617.058 264.96C616.706 265.12 616.418 265.312 616.194 265.536V273H611.682ZM626.958 260.112V256.848H631.83V260.112H626.958ZM627.318 273V264.912H625.662L626.046 261.624H631.83V273H627.318ZM633.994 278.184V261.624H637.906L638.122 262.536C638.586 262.168 639.09 261.888 639.634 261.696C640.194 261.488 640.842 261.384 641.578 261.384C643.274 261.384 644.578 261.816 645.49 262.68C646.418 263.528 646.882 264.976 646.882 267.024C646.882 269.056 646.394 270.6 645.418 271.656C644.442 272.712 643.098 273.24 641.386 273.24C640.25 273.24 639.29 273.024 638.506 272.592V278.184H633.994ZM640.234 269.952C640.89 269.952 641.394 269.72 641.746 269.256C642.098 268.792 642.274 268.072 642.274 267.096C642.274 266.152 642.106 265.512 641.77 265.176C641.45 264.84 640.954 264.672 640.282 264.672C639.61 264.672 639.018 264.896 638.506 265.344V269.376C638.762 269.568 639.018 269.712 639.274 269.808C639.53 269.904 639.85 269.952 640.234 269.952Z" fill="white"/>
<path d="M581.119 130.479H384.154C354.355 130.479 330.18 106.305 330.18 76.5059C330.18 46.7072 354.355 22.5325 384.154 22.5325H581.119C610.917 22.5325 635.092 46.7072 635.092 76.5059C635.092 106.326 610.938 130.479 581.119 130.479Z" fill="url(#paint1_linear_30_198)"/>
<path d="M475.216 70.24C472.416 70.24 470.28 69.552 468.808 68.176C467.336 66.8 466.6 64.856 466.6 62.344C466.6 59.752 467.32 57.768 468.76 56.392C470.2 55 472.344 54.304 475.192 54.304C476.152 54.304 477.008 54.376 477.76 54.52C478.512 54.664 479.232 54.864 479.92 55.12V59.056C478.544 58.448 477.072 58.144 475.504 58.144C474.048 58.144 472.968 58.48 472.264 59.152C471.56 59.808 471.208 60.872 471.208 62.344C471.208 63.784 471.576 64.824 472.312 65.464C473.064 66.088 474.144 66.4 475.552 66.4C476.32 66.4 477.064 66.328 477.784 66.184C478.52 66.04 479.248 65.816 479.968 65.512V69.472C479.28 69.712 478.552 69.896 477.784 70.024C477.032 70.168 476.176 70.24 475.216 70.24ZM487.826 70.24C485.554 70.24 483.874 69.736 482.786 68.728C481.714 67.72 481.178 66.248 481.178 64.312C481.178 62.392 481.722 60.928 482.81 59.92C483.898 58.896 485.57 58.384 487.826 58.384C490.098 58.384 491.778 58.896 492.866 59.92C493.97 60.928 494.522 62.392 494.522 64.312C494.522 66.248 493.978 67.72 492.89 68.728C491.802 69.736 490.114 70.24 487.826 70.24ZM487.826 66.952C488.562 66.952 489.09 66.744 489.41 66.328C489.746 65.912 489.914 65.24 489.914 64.312C489.914 63.4 489.746 62.736 489.41 62.32C489.09 61.888 488.562 61.672 487.826 61.672C487.106 61.672 486.586 61.888 486.266 62.32C485.946 62.736 485.786 63.4 485.786 64.312C485.786 65.24 485.946 65.912 486.266 66.328C486.586 66.744 487.106 66.952 487.826 66.952ZM496.213 70V58.624H500.437L500.557 59.488C500.989 59.2 501.557 58.944 502.261 58.72C502.981 58.496 503.749 58.384 504.565 58.384C505.989 58.384 507.029 58.736 507.685 59.44C508.341 60.144 508.669 61.232 508.669 62.704V70H504.157V63.16C504.157 62.648 504.045 62.28 503.821 62.056C503.597 61.832 503.205 61.72 502.645 61.72C502.309 61.72 501.957 61.8 501.589 61.96C501.237 62.12 500.949 62.312 500.725 62.536V70H496.213ZM515.137 70.24C514.161 70.24 513.241 70.168 512.377 70.024C511.529 69.896 510.857 69.728 510.361 69.52V66.28C510.921 66.536 511.585 66.736 512.353 66.88C513.137 67.024 513.801 67.096 514.345 67.096C514.921 67.096 515.353 67.08 515.641 67.048C515.945 67.016 516.097 66.88 516.097 66.64C516.097 66.368 515.833 66.16 515.305 66.016C514.777 65.872 514.113 65.664 513.313 65.392C512.273 65.024 511.497 64.592 510.985 64.096C510.473 63.6 510.217 62.88 510.217 61.936C510.217 60.8 510.665 59.928 511.561 59.32C512.457 58.696 513.865 58.384 515.785 58.384C516.521 58.384 517.281 58.44 518.065 58.552C518.849 58.664 519.465 58.792 519.913 58.936V62.104C519.433 61.896 518.905 61.744 518.329 61.648C517.769 61.552 517.257 61.504 516.793 61.504C516.281 61.504 515.825 61.528 515.425 61.576C515.025 61.624 514.825 61.76 514.825 61.984C514.825 62.24 515.049 62.424 515.497 62.536C515.961 62.648 516.577 62.824 517.345 63.064C518.209 63.32 518.881 63.6 519.361 63.904C519.857 64.208 520.201 64.576 520.393 65.008C520.601 65.44 520.705 65.976 520.705 66.616C520.705 67.768 520.233 68.664 519.289 69.304C518.361 69.928 516.977 70.24 515.137 70.24ZM523.185 57.112V53.848H528.057V57.112H523.185ZM523.545 70V61.912H521.889L522.273 58.624H528.057V70H523.545ZM534.661 70.24C533.685 70.24 532.765 70.168 531.901 70.024C531.053 69.896 530.381 69.728 529.885 69.52V66.28C530.445 66.536 531.109 66.736 531.877 66.88C532.661 67.024 533.325 67.096 533.869 67.096C534.445 67.096 534.877 67.08 535.165 67.048C535.469 67.016 535.621 66.88 535.621 66.64C535.621 66.368 535.357 66.16 534.829 66.016C534.301 65.872 533.637 65.664 532.837 65.392C531.797 65.024 531.021 64.592 530.509 64.096C529.997 63.6 529.741 62.88 529.741 61.936C529.741 60.8 530.189 59.928 531.085 59.32C531.981 58.696 533.389 58.384 535.309 58.384C536.045 58.384 536.805 58.44 537.589 58.552C538.373 58.664 538.989 58.792 539.437 58.936V62.104C538.957 61.896 538.429 61.744 537.853 61.648C537.293 61.552 536.781 61.504 536.317 61.504C535.805 61.504 535.349 61.528 534.949 61.576C534.549 61.624 534.349 61.76 534.349 61.984C534.349 62.24 534.573 62.424 535.021 62.536C535.485 62.648 536.101 62.824 536.869 63.064C537.733 63.32 538.405 63.6 538.885 63.904C539.381 64.208 539.725 64.576 539.917 65.008C540.125 65.44 540.229 65.976 540.229 66.616C540.229 67.768 539.757 68.664 538.813 69.304C537.885 69.928 536.501 70.24 534.661 70.24ZM546.436 70.24C544.916 70.24 543.812 69.856 543.124 69.088C542.436 68.32 542.092 67.28 542.092 65.968V61.96H540.604V58.624H542.092V56.296L546.604 55.216V58.624H549.22L549.052 61.96H546.604V65.632C546.604 66.112 546.724 66.456 546.964 66.664C547.204 66.856 547.572 66.952 548.068 66.952C548.532 66.952 549.004 66.872 549.484 66.712V69.712C548.636 70.064 547.62 70.24 546.436 70.24ZM556.946 70.24C555.618 70.24 554.442 70.024 553.418 69.592C552.41 69.144 551.618 68.48 551.042 67.6C550.482 66.72 550.202 65.632 550.202 64.336C550.202 62.528 550.714 61.088 551.738 60.016C552.762 58.928 554.29 58.384 556.322 58.384C558.178 58.384 559.626 58.856 560.666 59.8C561.722 60.744 562.25 62.032 562.25 63.664V65.656H554.354C554.562 66.264 554.97 66.696 555.578 66.952C556.186 67.208 557.01 67.336 558.05 67.336C558.706 67.336 559.362 67.28 560.018 67.168C560.69 67.04 561.226 66.896 561.626 66.736V69.448C560.506 69.976 558.946 70.24 556.946 70.24ZM554.354 63.208H558.362V62.8C558.362 62.352 558.218 61.984 557.93 61.696C557.658 61.408 557.17 61.264 556.466 61.264C555.682 61.264 555.13 61.432 554.81 61.768C554.506 62.088 554.354 62.568 554.354 63.208ZM563.924 70V58.624H568.148L568.268 59.488C568.7 59.2 569.268 58.944 569.972 58.72C570.692 58.496 571.46 58.384 572.276 58.384C573.7 58.384 574.74 58.736 575.396 59.44C576.052 60.144 576.38 61.232 576.38 62.704V70H571.868V63.16C571.868 62.648 571.756 62.28 571.532 62.056C571.308 61.832 570.916 61.72 570.356 61.72C570.02 61.72 569.668 61.8 569.3 61.96C568.948 62.12 568.66 62.312 568.436 62.536V70H563.924ZM583.28 70.24C581.76 70.24 580.656 69.856 579.968 69.088C579.28 68.32 578.936 67.28 578.936 65.968V61.96H577.448V58.624H578.936V56.296L583.448 55.216V58.624H586.064L585.896 61.96H583.448V65.632C583.448 66.112 583.568 66.456 583.808 66.664C584.048 66.856 584.416 66.952 584.912 66.952C585.376 66.952 585.848 66.872 586.328 66.712V69.712C585.48 70.064 584.464 70.24 583.28 70.24ZM467.08 98V82.544H475.12C476.384 82.544 477.416 82.776 478.216 83.24C479.032 83.704 479.64 84.352 480.04 85.184C480.44 86 480.64 86.952 480.64 88.04C480.64 89.08 480.376 90 479.848 90.8C479.336 91.584 478.648 92.184 477.784 92.6C477.96 92.744 478.112 92.92 478.24 93.128C478.368 93.32 478.512 93.592 478.672 93.944L480.448 98H475.744L474.112 94.28C473.984 93.992 473.824 93.792 473.632 93.68C473.456 93.552 473.2 93.488 472.864 93.488H471.592V98H467.08ZM471.592 90.032H473.968C474.624 90.032 475.128 89.864 475.48 89.528C475.848 89.176 476.032 88.68 476.032 88.04C476.032 86.68 475.392 86 474.112 86H471.592V90.032ZM488.227 98.24C486.899 98.24 485.723 98.024 484.699 97.592C483.691 97.144 482.899 96.48 482.323 95.6C481.763 94.72 481.483 93.632 481.483 92.336C481.483 90.528 481.995 89.088 483.019 88.016C484.043 86.928 485.571 86.384 487.603 86.384C489.459 86.384 490.907 86.856 491.947 87.8C493.003 88.744 493.531 90.032 493.531 91.664V93.656H485.635C485.843 94.264 486.251 94.696 486.859 94.952C487.467 95.208 488.291 95.336 489.331 95.336C489.987 95.336 490.643 95.28 491.299 95.168C491.971 95.04 492.507 94.896 492.907 94.736V97.448C491.787 97.976 490.227 98.24 488.227 98.24ZM485.635 91.208H489.643V90.8C489.643 90.352 489.499 89.984 489.211 89.696C488.939 89.408 488.451 89.264 487.747 89.264C486.963 89.264 486.411 89.432 486.091 89.768C485.787 90.088 485.635 90.568 485.635 91.208ZM499.528 98.24C498.552 98.24 497.632 98.168 496.768 98.024C495.92 97.896 495.248 97.728 494.752 97.52V94.28C495.312 94.536 495.976 94.736 496.744 94.88C497.528 95.024 498.192 95.096 498.736 95.096C499.312 95.096 499.744 95.08 500.032 95.048C500.336 95.016 500.488 94.88 500.488 94.64C500.488 94.368 500.224 94.16 499.696 94.016C499.168 93.872 498.504 93.664 497.704 93.392C496.664 93.024 495.888 92.592 495.376 92.096C494.864 91.6 494.608 90.88 494.608 89.936C494.608 88.8 495.056 87.928 495.952 87.32C496.848 86.696 498.256 86.384 500.176 86.384C500.912 86.384 501.672 86.44 502.456 86.552C503.24 86.664 503.856 86.792 504.304 86.936V90.104C503.824 89.896 503.296 89.744 502.72 89.648C502.16 89.552 501.648 89.504 501.184 89.504C500.672 89.504 500.216 89.528 499.816 89.576C499.416 89.624 499.216 89.76 499.216 89.984C499.216 90.24 499.44 90.424 499.888 90.536C500.352 90.648 500.968 90.824 501.736 91.064C502.6 91.32 503.272 91.6 503.752 91.904C504.248 92.208 504.592 92.576 504.784 93.008C504.992 93.44 505.096 93.976 505.096 94.616C505.096 95.768 504.624 96.664 503.68 97.304C502.752 97.928 501.368 98.24 499.528 98.24ZM510.911 98.24C509.583 98.24 508.543 97.864 507.791 97.112C507.039 96.36 506.663 95.256 506.663 93.8V86.624H511.175V93.44C511.175 94.432 511.679 94.928 512.687 94.928C513.055 94.928 513.415 94.848 513.767 94.688C514.119 94.528 514.399 94.328 514.607 94.088V86.624H519.119V98H514.895L514.775 97.136C514.327 97.456 513.775 97.72 513.119 97.928C512.479 98.136 511.743 98.24 510.911 98.24ZM525.132 98.24C523.74 98.24 522.748 97.944 522.156 97.352C521.564 96.76 521.268 95.832 521.268 94.568V81.824H525.78V94.064C525.78 94.416 525.852 94.656 525.996 94.784C526.14 94.896 526.364 94.952 526.668 94.952C526.876 94.952 527.076 94.936 527.268 94.904C527.476 94.872 527.668 94.824 527.844 94.76V97.76C527.428 97.92 527.02 98.04 526.62 98.12C526.236 98.2 525.74 98.24 525.132 98.24ZM533.194 98.24C531.674 98.24 530.57 97.856 529.882 97.088C529.194 96.32 528.85 95.28 528.85 93.968V89.96H527.362V86.624H528.85V84.296L533.362 83.216V86.624H535.978L535.81 89.96H533.362V93.632C533.362 94.112 533.482 94.456 533.722 94.664C533.962 94.856 534.33 94.952 534.826 94.952C535.29 94.952 535.762 94.872 536.242 94.712V97.712C535.394 98.064 534.378 98.24 533.194 98.24ZM541.879 98.24C540.903 98.24 539.983 98.168 539.119 98.024C538.271 97.896 537.599 97.728 537.103 97.52V94.28C537.663 94.536 538.327 94.736 539.095 94.88C539.879 95.024 540.543 95.096 541.087 95.096C541.663 95.096 542.095 95.08 542.383 95.048C542.687 95.016 542.839 94.88 542.839 94.64C542.839 94.368 542.575 94.16 542.047 94.016C541.519 93.872 540.855 93.664 540.055 93.392C539.015 93.024 538.239 92.592 537.727 92.096C537.215 91.6 536.959 90.88 536.959 89.936C536.959 88.8 537.407 87.928 538.303 87.32C539.199 86.696 540.607 86.384 542.527 86.384C543.263 86.384 544.023 86.44 544.807 86.552C545.591 86.664 546.207 86.792 546.655 86.936V90.104C546.175 89.896 545.647 89.744 545.071 89.648C544.511 89.552 543.999 89.504 543.535 89.504C543.023 89.504 542.567 89.528 542.167 89.576C541.767 89.624 541.567 89.76 541.567 89.984C541.567 90.24 541.791 90.424 542.239 90.536C542.703 90.648 543.319 90.824 544.087 91.064C544.951 91.32 545.623 91.6 546.103 91.904C546.599 92.208 546.943 92.576 547.135 93.008C547.343 93.44 547.447 93.976 547.447 94.616C547.447 95.768 546.975 96.664 546.031 97.304C545.103 97.928 543.719 98.24 541.879 98.24Z" fill="white"/>
<path d="M581.329 479.734H384.363C354.565 479.734 330.39 455.559 330.39 425.76C330.39 395.962 354.565 371.787 384.363 371.787H581.329C611.127 371.787 635.302 395.962 635.302 425.76C635.302 455.559 611.148 479.734 581.329 479.734Z" fill="url(#paint2_linear_30_198)"/>
<path d="M479.216 423.24C476.416 423.24 474.28 422.552 472.808 421.176C471.336 419.8 470.6 417.856 470.6 415.344C470.6 412.752 471.32 410.768 472.76 409.392C474.2 408 476.344 407.304 479.192 407.304C480.152 407.304 481.008 407.376 481.76 407.52C482.512 407.664 483.232 407.864 483.92 408.12V412.056C482.544 411.448 481.072 411.144 479.504 411.144C478.048 411.144 476.968 411.48 476.264 412.152C475.56 412.808 475.208 413.872 475.208 415.344C475.208 416.784 475.576 417.824 476.312 418.464C477.064 419.088 478.144 419.4 479.552 419.4C480.32 419.4 481.064 419.328 481.784 419.184C482.52 419.04 483.248 418.816 483.968 418.512V422.472C483.28 422.712 482.552 422.896 481.784 423.024C481.032 423.168 480.176 423.24 479.216 423.24ZM491.826 423.24C489.554 423.24 487.874 422.736 486.786 421.728C485.714 420.72 485.178 419.248 485.178 417.312C485.178 415.392 485.722 413.928 486.81 412.92C487.898 411.896 489.57 411.384 491.826 411.384C494.098 411.384 495.778 411.896 496.866 412.92C497.97 413.928 498.522 415.392 498.522 417.312C498.522 419.248 497.978 420.72 496.89 421.728C495.802 422.736 494.114 423.24 491.826 423.24ZM491.826 419.952C492.562 419.952 493.09 419.744 493.41 419.328C493.746 418.912 493.914 418.24 493.914 417.312C493.914 416.4 493.746 415.736 493.41 415.32C493.09 414.888 492.562 414.672 491.826 414.672C491.106 414.672 490.586 414.888 490.266 415.32C489.946 415.736 489.786 416.4 489.786 417.312C489.786 418.24 489.946 418.912 490.266 419.328C490.586 419.744 491.106 419.952 491.826 419.952ZM500.213 423V411.624H504.437L504.557 412.488C504.989 412.2 505.557 411.944 506.261 411.72C506.981 411.496 507.749 411.384 508.565 411.384C509.989 411.384 511.029 411.736 511.685 412.44C512.341 413.144 512.669 414.232 512.669 415.704V423H508.157V416.16C508.157 415.648 508.045 415.28 507.821 415.056C507.597 414.832 507.205 414.72 506.645 414.72C506.309 414.72 505.957 414.8 505.589 414.96C505.237 415.12 504.949 415.312 504.725 415.536V423H500.213ZM519.137 423.24C518.161 423.24 517.241 423.168 516.377 423.024C515.529 422.896 514.857 422.728 514.361 422.52V419.28C514.921 419.536 515.585 419.736 516.353 419.88C517.137 420.024 517.801 420.096 518.345 420.096C518.921 420.096 519.353 420.08 519.641 420.048C519.945 420.016 520.097 419.88 520.097 419.64C520.097 419.368 519.833 419.16 519.305 419.016C518.777 418.872 518.113 418.664 517.313 418.392C516.273 418.024 515.497 417.592 514.985 417.096C514.473 416.6 514.217 415.88 514.217 414.936C514.217 413.8 514.665 412.928 515.561 412.32C516.457 411.696 517.865 411.384 519.785 411.384C520.521 411.384 521.281 411.44 522.065 411.552C522.849 411.664 523.465 411.792 523.913 411.936V415.104C523.433 414.896 522.905 414.744 522.329 414.648C521.769 414.552 521.257 414.504 520.793 414.504C520.281 414.504 519.825 414.528 519.425 414.576C519.025 414.624 518.825 414.76 518.825 414.984C518.825 415.24 519.049 415.424 519.497 415.536C519.961 415.648 520.577 415.824 521.345 416.064C522.209 416.32 522.881 416.6 523.361 416.904C523.857 417.208 524.201 417.576 524.393 418.008C524.601 418.44 524.705 418.976 524.705 419.616C524.705 420.768 524.233 421.664 523.289 422.304C522.361 422.928 520.977 423.24 519.137 423.24ZM530.913 423.24C529.393 423.24 528.289 422.856 527.601 422.088C526.913 421.32 526.569 420.28 526.569 418.968V414.96H525.081V411.624H526.569V409.296L531.081 408.216V411.624H533.697L533.529 414.96H531.081V418.632C531.081 419.112 531.201 419.456 531.441 419.664C531.681 419.856 532.049 419.952 532.545 419.952C533.009 419.952 533.481 419.872 533.961 419.712V422.712C533.113 423.064 532.097 423.24 530.913 423.24ZM538.71 423.24C537.99 423.24 537.318 423.112 536.694 422.856C536.086 422.6 535.598 422.2 535.23 421.656C534.862 421.112 534.678 420.424 534.678 419.592C534.678 418.392 535.078 417.464 535.878 416.808C536.678 416.136 537.886 415.8 539.502 415.8H542.454V415.584C542.454 415.136 542.27 414.808 541.902 414.6C541.534 414.392 540.886 414.288 539.958 414.288C538.646 414.288 537.35 414.488 536.07 414.888V412.176C536.646 411.952 537.366 411.768 538.23 411.624C539.094 411.464 539.974 411.384 540.87 411.384C542.678 411.384 544.11 411.752 545.166 412.488C546.222 413.224 546.75 414.392 546.75 415.992V423H542.814L542.598 422.088C542.198 422.44 541.678 422.72 541.038 422.928C540.414 423.136 539.638 423.24 538.71 423.24ZM540.246 420.6C540.758 420.6 541.19 420.512 541.542 420.336C541.91 420.16 542.214 419.944 542.454 419.688V418.272H540.27C539.278 418.272 538.782 418.664 538.782 419.448C538.782 420.216 539.27 420.6 540.246 420.6ZM548.799 423V411.624H553.023L553.143 412.488C553.575 412.2 554.143 411.944 554.847 411.72C555.567 411.496 556.335 411.384 557.151 411.384C558.575 411.384 559.615 411.736 560.271 412.44C560.927 413.144 561.255 414.232 561.255 415.704V423H556.743V416.16C556.743 415.648 556.631 415.28 556.407 415.056C556.183 414.832 555.791 414.72 555.231 414.72C554.895 414.72 554.543 414.8 554.175 414.96C553.823 415.12 553.535 415.312 553.311 415.536V423H548.799ZM568.155 423.24C566.635 423.24 565.531 422.856 564.843 422.088C564.155 421.32 563.811 420.28 563.811 418.968V414.96H562.323V411.624H563.811V409.296L568.323 408.216V411.624H570.939L570.771 414.96H568.323V418.632C568.323 419.112 568.443 419.456 568.683 419.664C568.923 419.856 569.291 419.952 569.787 419.952C570.251 419.952 570.723 419.872 571.203 419.712V422.712C570.355 423.064 569.339 423.24 568.155 423.24ZM471.08 451V435.544H475.592V451H471.08ZM477.76 451V439.624H481.984L482.104 440.488C482.536 440.2 483.104 439.944 483.808 439.72C484.528 439.496 485.296 439.384 486.112 439.384C487.536 439.384 488.576 439.736 489.232 440.44C489.888 441.144 490.216 442.232 490.216 443.704V451H485.704V444.16C485.704 443.648 485.592 443.28 485.368 443.056C485.144 442.832 484.752 442.72 484.192 442.72C483.856 442.72 483.504 442.8 483.136 442.96C482.784 443.12 482.496 443.312 482.272 443.536V451H477.76ZM492.244 451V439.624H496.468L496.588 440.488C497.02 440.2 497.588 439.944 498.292 439.72C499.012 439.496 499.78 439.384 500.596 439.384C502.02 439.384 503.06 439.736 503.716 440.44C504.372 441.144 504.7 442.232 504.7 443.704V451H500.188V444.16C500.188 443.648 500.076 443.28 499.852 443.056C499.628 442.832 499.236 442.72 498.676 442.72C498.34 442.72 497.988 442.8 497.62 442.96C497.268 443.12 496.98 443.312 496.756 443.536V451H492.244ZM512.756 451.24C510.484 451.24 508.804 450.736 507.716 449.728C506.644 448.72 506.108 447.248 506.108 445.312C506.108 443.392 506.652 441.928 507.74 440.92C508.828 439.896 510.5 439.384 512.756 439.384C515.028 439.384 516.708 439.896 517.796 440.92C518.9 441.928 519.452 443.392 519.452 445.312C519.452 447.248 518.908 448.72 517.82 449.728C516.732 450.736 515.044 451.24 512.756 451.24ZM512.756 447.952C513.492 447.952 514.02 447.744 514.34 447.328C514.676 446.912 514.844 446.24 514.844 445.312C514.844 444.4 514.676 443.736 514.34 443.32C514.02 442.888 513.492 442.672 512.756 442.672C512.036 442.672 511.516 442.888 511.196 443.32C510.876 443.736 510.716 444.4 510.716 445.312C510.716 446.24 510.876 446.912 511.196 447.328C511.516 447.744 512.036 447.952 512.756 447.952ZM523.838 451L519.35 439.624H524.054L526.214 446.296L528.374 439.624H533.078L528.59 451H523.838ZM537.234 451.24C536.514 451.24 535.842 451.112 535.218 450.856C534.61 450.6 534.122 450.2 533.754 449.656C533.386 449.112 533.202 448.424 533.202 447.592C533.202 446.392 533.602 445.464 534.402 444.808C535.202 444.136 536.41 443.8 538.026 443.8H540.978V443.584C540.978 443.136 540.794 442.808 540.426 442.6C540.058 442.392 539.41 442.288 538.482 442.288C537.17 442.288 535.874 442.488 534.594 442.888V440.176C535.17 439.952 535.89 439.768 536.754 439.624C537.618 439.464 538.498 439.384 539.394 439.384C541.202 439.384 542.634 439.752 543.69 440.488C544.746 441.224 545.274 442.392 545.274 443.992V451H541.338L541.122 450.088C540.722 450.44 540.202 450.72 539.562 450.928C538.938 451.136 538.162 451.24 537.234 451.24ZM538.77 448.6C539.282 448.6 539.714 448.512 540.066 448.336C540.434 448.16 540.738 447.944 540.978 447.688V446.272H538.794C537.802 446.272 537.306 446.664 537.306 447.448C537.306 448.216 537.794 448.6 538.77 448.6ZM552.194 451.24C550.674 451.24 549.57 450.856 548.882 450.088C548.194 449.32 547.85 448.28 547.85 446.968V442.96H546.362V439.624H547.85V437.296L552.362 436.216V439.624H554.978L554.81 442.96H552.362V446.632C552.362 447.112 552.482 447.456 552.722 447.664C552.962 447.856 553.33 447.952 553.826 447.952C554.29 447.952 554.762 447.872 555.242 447.712V450.712C554.394 451.064 553.378 451.24 552.194 451.24ZM557.231 438.112V434.848H562.103V438.112H557.231ZM557.591 451V442.912H555.935L556.319 439.624H562.103V451H557.591ZM570.436 451.24C568.164 451.24 566.484 450.736 565.396 449.728C564.324 448.72 563.788 447.248 563.788 445.312C563.788 443.392 564.332 441.928 565.42 440.92C566.508 439.896 568.18 439.384 570.436 439.384C572.708 439.384 574.388 439.896 575.476 440.92C576.58 441.928 577.132 443.392 577.132 445.312C577.132 447.248 576.588 448.72 575.5 449.728C574.412 450.736 572.724 451.24 570.436 451.24ZM570.436 447.952C571.172 447.952 571.7 447.744 572.02 447.328C572.356 446.912 572.524 446.24 572.524 445.312C572.524 444.4 572.356 443.736 572.02 443.32C571.7 442.888 571.172 442.672 570.436 442.672C569.716 442.672 569.196 442.888 568.876 443.32C568.556 443.736 568.396 444.4 568.396 445.312C568.396 446.24 568.556 446.912 568.876 447.328C569.196 447.744 569.716 447.952 570.436 447.952ZM578.822 451V439.624H583.046L583.166 440.488C583.598 440.2 584.166 439.944 584.87 439.72C585.59 439.496 586.358 439.384 587.174 439.384C588.598 439.384 589.638 439.736 590.294 440.44C590.95 441.144 591.278 442.232 591.278 443.704V451H586.766V444.16C586.766 443.648 586.654 443.28 586.43 443.056C586.206 442.832 585.814 442.72 585.254 442.72C584.918 442.72 584.566 442.8 584.198 442.96C583.846 443.12 583.558 443.312 583.334 443.536V451H578.822Z" fill="white"/>
<path d="M334.923 235.221H248.633V266.299H334.923C343.506 266.299 350.473 259.332 350.473 250.75C350.473 242.188 343.506 235.221 334.923 235.221ZM334.902 260.214C329.677 260.214 325.459 255.996 325.459 250.771C325.459 245.545 329.677 241.327 334.902 241.327C340.127 241.327 344.345 245.545 344.345 250.771C344.345 255.996 340.127 260.214 334.902 260.214Z" fill="url(#paint3_linear_30_198)"/>
<path d="M334.923 142.005H236.042V173.105H334.923C343.506 173.105 350.473 166.138 350.473 157.555C350.473 148.952 343.506 142.005 334.923 142.005ZM334.902 166.978C329.677 166.978 325.459 162.76 325.459 157.534C325.459 152.309 329.677 148.091 334.902 148.091C340.127 148.091 344.345 152.309 344.345 157.534C344.345 162.76 340.127 166.978 334.902 166.978Z" fill="url(#paint4_linear_30_198)"/>
<path d="M334.923 328.751H236.042V359.851H334.923C343.506 359.851 350.473 352.884 350.473 344.301C350.473 335.697 343.506 328.751 334.923 328.751ZM334.902 353.723C329.677 353.723 325.459 349.505 325.459 344.28C325.459 339.054 329.677 334.836 334.902 334.836C340.127 334.836 344.345 339.054 344.345 344.28C344.345 349.505 340.127 353.723 334.902 353.723Z" fill="url(#paint5_linear_30_198)"/>
<g style="mix-blend-mode:multiply">
<path d="M449.669 357.584C499.226 357.584 539.401 317.41 539.401 267.852C539.401 218.295 499.226 178.12 449.669 178.12C400.111 178.12 359.937 218.295 359.937 267.852C359.937 317.41 400.111 357.584 449.669 357.584Z" fill="url(#paint6_radial_30_198)"/>
</g>
<g style="mix-blend-mode:multiply">
<path d="M399.682 179.464C449.24 179.464 489.414 139.289 489.414 89.7318C489.414 40.1743 449.24 0 399.682 0C350.125 0 309.951 40.1743 309.951 89.7318C309.951 139.289 350.125 179.464 399.682 179.464Z" fill="url(#paint7_radial_30_198)"/>
</g>
<g style="mix-blend-mode:multiply">
<path d="M398.843 541.917C456.676 541.917 503.558 495.034 503.558 437.201C503.558 379.369 456.676 332.486 398.843 332.486C341.011 332.486 294.128 379.369 294.128 437.201C294.128 495.034 341.011 541.917 398.843 541.917Z" fill="url(#paint8_radial_30_198)"/>
</g>
<path d="M338.294 162.403C341.04 160.567 341.777 156.853 339.942 154.107C338.106 151.361 334.392 150.623 331.646 152.459C328.9 154.295 328.162 158.009 329.998 160.755C331.834 163.501 335.548 164.239 338.294 162.403Z" fill="#1D1D1B"/>
<path d="M369.065 15.277C335.238 23.5032 314.483 57.6247 322.731 91.4735C330.978 125.322 365.078 146.076 398.927 137.829C432.776 129.582 453.53 95.4817 445.283 61.6329C437.036 27.7841 402.914 7.02993 369.065 15.277Z" fill="url(#paint9_linear_30_198)"/>
<path d="M334.923 158.605C334.734 158.605 334.545 158.563 334.377 158.458C333.874 158.164 333.727 157.514 334.021 157.01L366.568 103.519C366.862 103.015 367.513 102.869 368.016 103.162C368.52 103.456 368.667 104.107 368.373 104.61L335.825 158.101C335.616 158.416 335.28 158.605 334.923 158.605Z" fill="#1D1D1B"/>
<path d="M383.986 130.002C413.516 130.002 437.456 106.063 437.456 76.5323C437.456 47.0017 413.516 23.0625 383.986 23.0625C354.455 23.0625 330.516 47.0017 330.516 76.5323C330.516 106.063 354.455 130.002 383.986 130.002Z" fill="#F9F9F9"/>
<path d="M383.944 131.135C373.976 131.135 364.197 128.344 355.656 123.14C343.212 115.564 334.461 103.603 331.02 89.4381C327.578 75.2732 329.845 60.6467 337.42 48.2026C342.373 40.0604 349.382 33.3452 357.692 28.7705C365.75 24.3426 374.857 21.9923 384.049 21.9923C393.996 21.9923 403.775 24.7413 412.337 29.9456C424.781 37.5212 433.531 49.4827 436.973 63.6265C440.415 77.7704 438.148 92.4179 430.573 104.862C425.62 113.004 418.611 119.761 410.301 124.315C402.264 128.764 393.135 131.135 383.944 131.135ZM384.049 24.1118C365.561 24.1118 348.815 33.5341 339.225 49.2938C324.2 73.9931 332.069 106.331 356.768 121.356C364.994 126.351 374.396 129.037 383.965 129.037C402.453 129.037 419.199 119.594 428.789 103.813C443.814 79.1135 435.945 46.7966 411.245 31.7713C403.019 26.7769 393.618 24.1118 384.049 24.1118Z" fill="#1D1D1B"/>
<path d="M334.902 256.751C338.205 256.751 340.883 254.073 340.883 250.77C340.883 247.467 338.205 244.79 334.902 244.79C331.599 244.79 328.921 247.467 328.921 250.77C328.921 254.073 331.599 256.751 334.902 256.751Z" fill="#1D1D1B"/>
<path d="M474.137 206.135C449.501 181.499 409.588 181.499 384.951 206.135C360.315 230.772 360.315 270.685 384.951 295.321C409.588 319.958 449.501 319.958 474.137 295.321C498.753 270.706 498.753 230.772 474.137 206.135Z" fill="url(#paint10_linear_30_198)"/>
<path d="M420.08 251.967H333.748C333.16 251.967 332.698 251.505 332.698 250.917C332.698 250.33 333.16 249.868 333.748 249.868H420.08C420.668 249.868 421.129 250.33 421.129 250.917C421.129 251.484 420.668 251.967 420.08 251.967Z" fill="#1D1D1B"/>
<path d="M429.523 304.198C459.054 304.198 482.993 280.259 482.993 250.728C482.993 221.198 459.054 197.259 429.523 197.259C399.993 197.259 376.053 221.198 376.053 250.728C376.053 280.259 399.993 304.198 429.523 304.198Z" fill="#F9F9F9"/>
<path d="M429.523 305.247C414.96 305.247 401.278 299.582 390.974 289.278C380.67 278.974 375.004 265.292 375.004 250.728C375.004 236.165 380.67 222.483 390.974 212.179C401.278 201.875 414.96 196.209 429.523 196.209C444.087 196.209 457.769 201.875 468.073 212.179C478.376 222.483 484.042 236.165 484.042 250.728C484.042 265.292 478.376 278.974 468.073 289.278C457.79 299.582 444.087 305.247 429.523 305.247ZM429.523 198.329C400.627 198.329 377.103 221.832 377.103 250.749C377.103 279.646 400.606 303.17 429.523 303.17C458.42 303.17 481.944 279.667 481.944 250.749C481.944 221.832 458.441 198.329 429.523 198.329Z" fill="#1D1D1B"/>
<path d="M340.896 345.819C341.692 342.613 339.737 339.37 336.531 338.574C333.326 337.779 330.082 339.733 329.286 342.939C328.491 346.145 330.445 349.389 333.651 350.184C336.857 350.979 340.101 349.025 340.896 345.819Z" fill="#1D1D1B"/>
<path d="M444.927 440.727C453.321 406.92 432.713 372.714 398.906 364.32C365.1 355.926 330.894 376.534 322.5 410.34C314.106 444.147 334.713 478.353 368.52 486.747C402.327 495.141 436.533 474.533 444.927 440.727Z" fill="url(#paint11_linear_30_198)"/>
<path d="M369.737 403.751C369.381 403.751 369.045 403.562 368.835 403.248L333.79 345.056C333.496 344.553 333.643 343.923 334.147 343.608C334.651 343.315 335.28 343.461 335.595 343.965L370.64 402.156C370.934 402.66 370.787 403.29 370.283 403.604C370.115 403.709 369.926 403.751 369.737 403.751Z" fill="#1D1D1B"/>
<path d="M421.639 463.434C442.52 442.553 442.52 408.698 421.639 387.817C400.758 366.936 366.903 366.936 346.022 387.817C325.141 408.698 325.141 442.553 346.022 463.434C366.903 484.315 400.758 484.315 421.639 463.434Z" fill="#F9F9F9"/>
<path d="M383.777 480.116C374.543 480.116 365.394 477.723 357.315 473.275C348.984 468.679 341.975 461.901 337.043 453.696C329.531 441.23 327.327 426.562 330.832 412.439C334.336 398.316 343.129 386.376 355.615 378.863C364.114 373.743 373.83 371.036 383.693 371.036C392.926 371.036 402.076 373.386 410.155 377.856C418.486 382.451 425.495 389.23 430.426 397.414C437.939 409.879 440.142 424.547 436.638 438.67C433.133 452.793 424.341 464.755 411.855 472.267C403.356 477.388 393.64 480.116 383.777 480.116ZM383.672 373.134C374.187 373.134 364.848 375.736 356.664 380.668C344.682 387.887 336.204 399.344 332.846 412.943C329.468 426.541 331.587 440.622 338.827 452.604C348.396 468.49 365.205 477.975 383.777 477.975C393.262 477.975 402.6 475.373 410.763 470.442C422.746 463.223 431.224 451.765 434.581 438.167C437.96 424.568 435.84 410.487 428.601 398.505C419.052 382.619 402.244 373.134 383.672 373.134Z" fill="#1D1D1B"/>
<g style="mix-blend-mode:multiply">
<path d="M172.991 451.546C268.531 451.546 345.982 374.095 345.982 278.555C345.982 183.014 268.531 105.564 172.991 105.564C77.4507 105.564 0 183.014 0 278.555C0 374.095 77.4507 451.546 172.991 451.546Z" fill="url(#paint12_radial_30_198)"/>
</g>
<path d="M161.173 398.652C238.36 398.652 300.933 336.079 300.933 258.892C300.933 181.705 238.36 119.132 161.173 119.132C83.986 119.132 21.4134 181.705 21.4134 258.892C21.4134 336.079 83.986 398.652 161.173 398.652Z" fill="#F9F9F9"/>
<path d="M160.76 398.519C237.947 398.519 300.519 335.947 300.519 258.76C300.519 181.573 237.947 119 160.76 119C83.5726 119 21 181.573 21 258.76C21 335.947 83.5726 398.519 160.76 398.519Z" fill="#F9F9F9"/>
<g opacity="0.25">
<path d="M153.99 273.944C157.271 278.804 160.389 283.503 163.508 288.16C163.67 288.16 163.832 288.12 163.994 288.12C167.882 273.539 171.77 258.958 175.699 244.215C161.928 244.215 148.441 244.215 134.468 244.215C137.587 248.995 140.503 253.49 143.5 258.108C138.073 263.859 132.645 269.489 125.031 272.324C118.146 274.876 110.045 270.825 108.263 263.981C107.453 260.862 108.02 257.905 109.559 255.151C115.999 243.324 122.56 231.538 129.122 219.752C138.761 202.458 162.576 203.065 172.864 218.092C175.578 222.101 177.684 226.516 179.992 230.769C187.404 244.215 194.816 257.662 202.269 271.109C204.334 274.835 206.683 278.399 207.696 282.612C210.977 296.261 201.134 311.409 187.121 313.231C179.344 314.244 171.406 314.001 163.508 314.163C160.227 314.203 156.866 314.041 153.625 313.515C142.204 311.652 138.235 302.215 140.503 292.454C141.88 286.459 145.484 281.801 149.818 277.63C151.114 276.374 152.491 275.281 153.99 273.944Z" fill="black"/>
</g>
<path d="M159.66 271.109C162.941 275.969 166.06 280.667 169.178 285.325C169.34 285.325 169.502 285.285 169.664 285.285C173.552 270.704 177.441 256.123 181.369 241.38C167.599 241.38 154.111 241.38 140.138 241.38C143.257 246.16 146.173 250.655 149.17 255.273C143.743 261.024 138.316 266.654 130.701 269.489C123.816 272.04 115.715 267.99 113.933 261.145C113.123 258.027 113.69 255.07 115.229 252.316C121.669 240.489 128.231 228.703 134.792 216.917C144.431 199.622 168.247 200.23 178.534 215.256C181.248 219.266 183.354 223.681 185.663 227.934C193.075 241.38 200.486 254.827 207.939 268.274C210.004 272 212.354 275.564 213.366 279.776C216.647 293.426 206.805 308.573 192.791 310.396C185.015 311.409 177.076 311.166 169.178 311.328C165.898 311.368 162.536 311.206 159.296 310.68C147.874 308.816 143.905 299.379 146.173 289.618C147.55 283.624 151.155 278.966 155.488 274.795C156.785 273.539 158.162 272.445 159.66 271.109Z" fill="url(#paint13_linear_30_198)"/>
<path d="M161.173 118.812C83.8019 118.812 21.0936 181.538 21.0936 258.892C21.0936 336.246 83.8188 398.972 161.173 398.972C238.527 398.972 301.253 336.246 301.253 258.892C301.253 181.538 238.527 118.812 161.173 118.812ZM161.173 394.679C86.1756 394.679 25.3864 333.89 25.3864 258.892C25.3864 183.895 86.1756 123.105 161.173 123.105C236.171 123.105 296.96 183.895 296.96 258.892C296.96 333.89 236.154 394.679 161.173 394.679Z" fill="url(#paint14_linear_30_198)"/>
<g clip-path="url(#clip0_30_198)">
<path d="M394.322 409.724C390.424 406.555 385.315 405.337 380.303 406.381C373.79 407.739 368.642 413.112 367.514 419.671C366.523 425.424 368.504 430.887 372.381 434.598C374.88 436.991 376.314 440.32 376.314 443.732V446.851C376.314 449.347 378.344 451.377 380.84 451.377H386.876C389.372 451.377 391.402 449.347 391.402 446.851C391.402 444.094 391.402 449.431 391.402 442.834C391.402 439.911 392.763 437.02 395.233 434.695C398.552 431.57 400.455 427.165 400.455 422.608C400.456 417.589 398.22 412.893 394.322 409.724ZM386.876 448.359H380.84C380.008 448.359 379.331 447.682 379.331 446.85V445.241H388.385V446.85C388.385 447.682 387.708 448.359 386.876 448.359ZM383.858 431.959L379.764 425.818L380.84 424.742L382.791 426.693C383.38 427.282 384.336 427.282 384.925 426.693L386.876 424.742L387.952 425.818L383.858 431.959ZM393.165 432.497C390.249 435.242 388.573 438.675 388.4 442.223H385.367V435.136L391.066 426.587L393.978 423.675C394.567 423.086 394.567 422.13 393.978 421.541C393.389 420.952 392.433 420.952 391.844 421.541L389.893 423.492L387.943 421.541C387.353 420.952 386.398 420.952 385.809 421.541L383.858 423.492L381.907 421.541C381.318 420.952 380.362 420.952 379.773 421.541L377.822 423.492L375.871 421.541C375.282 420.952 374.327 420.952 373.738 421.541C373.148 422.13 373.148 423.086 373.738 423.675L376.65 426.587L382.349 435.136V442.223H379.256C378.889 438.533 377.19 435.024 374.468 432.418C371.147 429.239 369.696 424.779 370.487 420.183C371.413 414.802 375.605 410.443 380.918 409.335C385.036 408.477 389.228 409.472 392.418 412.065C395.608 414.659 397.437 418.502 397.437 422.608C397.438 426.391 395.92 429.903 393.165 432.497Z" fill="#5D00A7"/>
<path d="M364.142 422.608C364.142 421.775 363.467 421.099 362.633 421.099H359.615C358.782 421.099 358.107 421.775 358.107 422.608C358.107 423.441 358.782 424.117 359.615 424.117H362.633C363.467 424.117 364.142 423.441 364.142 422.608Z" fill="#5D00A7"/>
<path d="M408.101 421.099H405.083C404.249 421.099 403.574 421.775 403.574 422.608C403.574 423.441 404.249 424.117 405.083 424.117H408.101C408.934 424.117 409.609 423.441 409.609 422.608C409.609 421.775 408.934 421.099 408.101 421.099Z" fill="#5D00A7"/>
<path d="M366.318 410.739L363.705 409.23C362.983 408.813 362.06 409.061 361.644 409.783C361.227 410.504 361.475 411.427 362.196 411.844L364.809 413.353C365.531 413.769 366.454 413.522 366.871 412.801C367.287 412.079 367.04 411.156 366.318 410.739Z" fill="#5D00A7"/>
<path d="M405.52 433.372L402.906 431.863C402.185 431.447 401.262 431.694 400.845 432.416C400.429 433.137 400.676 434.06 401.397 434.477L404.011 435.986C404.732 436.402 405.655 436.155 406.072 435.433C406.489 434.712 406.242 433.789 405.52 433.372Z" fill="#5D00A7"/>
<path d="M371.989 404.751C372.406 405.473 373.329 405.72 374.05 405.303C374.772 404.887 375.019 403.964 374.602 403.243L373.094 400.629C372.677 399.907 371.754 399.66 371.033 400.077C370.311 400.494 370.064 401.416 370.48 402.138L371.989 404.751Z" fill="#5D00A7"/>
<path d="M364.809 431.863L362.196 433.372C361.475 433.789 361.227 434.712 361.644 435.433C362.061 436.155 362.984 436.402 363.705 435.986L366.318 434.477C367.04 434.06 367.287 433.137 366.871 432.416C366.454 431.694 365.531 431.447 364.809 431.863Z" fill="#5D00A7"/>
<path d="M402.906 413.353L405.52 411.844C406.242 411.427 406.489 410.504 406.072 409.783C405.655 409.061 404.733 408.814 404.011 409.23L401.397 410.739C400.676 411.156 400.429 412.079 400.845 412.801C401.262 413.522 402.185 413.77 402.906 413.353Z" fill="#5D00A7"/>
<path d="M393.666 405.303C394.387 405.72 395.31 405.474 395.727 404.751L397.235 402.138C397.652 401.416 397.405 400.494 396.683 400.077C395.962 399.66 395.039 399.907 394.622 400.629L393.113 403.243C392.697 403.964 392.944 404.887 393.666 405.303Z" fill="#5D00A7"/>
</g>
<g clip-path="url(#clip1_30_198)">
<path d="M429.728 267.093C428.41 267.093 426.709 266.364 425.919 265.844C424.962 265.216 420.159 261.604 416.163 258.258C415.498 257.7 414.509 256.666 413.552 255.666C412.841 254.926 412.198 254.245 411.865 253.964C411.412 253.582 411.356 252.904 411.738 252.451C412.118 251.996 412.794 251.938 413.251 252.325C413.616 252.634 414.326 253.37 415.103 254.181C415.979 255.095 416.97 256.13 417.543 256.612C421.623 260.029 426.346 263.552 427.099 264.048C427.728 264.464 429.013 264.947 429.728 264.947C430.732 264.947 430.824 264.69 430.865 264.582C430.988 264.246 431.269 263.992 431.618 263.906C431.964 263.823 432.333 263.915 432.599 264.155C433.026 264.546 433.503 264.471 433.831 264.346C434.511 264.082 435.033 263.406 435.097 262.703C435.136 262.295 435.402 261.943 435.784 261.799C436.166 261.658 436.597 261.739 436.898 262.018C437.166 262.267 437.883 262.327 438.569 261.979C438.84 261.844 439.464 261.454 439.391 260.771C439.346 260.355 439.548 259.949 439.908 259.735C440.267 259.52 440.719 259.535 441.067 259.773C441.383 259.994 441.964 259.879 442.389 259.514C442.679 259.267 443.106 258.728 442.709 257.902C441.904 256.228 438.327 253.336 435.172 250.784C433.428 249.374 431.771 248.033 430.543 246.88C430.23 247.007 429.994 247.112 429.792 247.202C429.234 247.453 428.863 247.608 428.181 247.713C426.528 249.906 424.309 250.675 421.878 249.872C420.908 249.552 420.256 248.865 420.035 247.938C419.52 245.76 421.513 242.79 422.981 241.322C426.837 237.464 429.537 236.015 434.458 238.215C438.681 240.106 442.913 241.584 442.956 241.599C443.516 241.795 443.81 242.406 443.617 242.966C443.421 243.526 442.814 243.822 442.25 243.627C442.207 243.612 437.889 242.104 433.58 240.177C429.782 238.479 427.983 239.352 424.496 242.842C423.03 244.307 421.899 246.501 422.125 247.443C422.157 247.58 422.217 247.724 422.552 247.835C423.601 248.187 425.172 248.38 426.689 246.112C426.867 245.846 427.155 245.674 427.475 245.642C428.198 245.569 428.378 245.488 428.915 245.247C429.267 245.091 429.713 244.889 430.436 244.627C430.824 244.488 431.264 244.582 431.558 244.878C432.732 246.052 434.573 247.541 436.522 249.117C440.016 251.943 443.632 254.868 444.642 256.975C445.355 258.454 445.016 260.093 443.784 261.147C443.056 261.771 442.177 262.074 441.322 262.029C441.013 262.803 440.391 263.467 439.531 263.9C438.651 264.342 437.683 264.469 436.837 264.288C436.382 265.211 435.58 265.973 434.603 266.351C433.777 266.673 432.919 266.67 432.164 266.376C431.599 266.851 430.786 267.093 429.728 267.093Z" fill="#5D00A7"/>
<path d="M425.436 241.342H415.779C415.187 241.342 414.706 240.861 414.706 240.269C414.706 239.676 415.187 239.196 415.779 239.196H425.436C426.028 239.196 426.509 239.676 426.509 240.269C426.509 240.861 426.028 241.342 425.436 241.342Z" fill="#5D00A7"/>
<path d="M443.76 258.471C443.415 258.471 443.076 258.303 442.868 257.997C442.537 257.505 442.668 256.838 443.159 256.507L446.297 254.4C446.788 254.065 447.454 254.2 447.786 254.692C448.117 255.183 447.986 255.851 447.494 256.181L444.357 258.288C444.172 258.413 443.964 258.471 443.76 258.471Z" fill="#5D00A7"/>
<path d="M440.458 261.728C440.226 261.728 439.99 261.653 439.795 261.499C438.664 260.606 433.799 255.535 433.247 254.96C432.837 254.533 432.85 253.853 433.279 253.443C433.707 253.031 434.387 253.046 434.797 253.475C436.921 255.69 440.357 259.207 441.125 259.812C441.591 260.179 441.67 260.855 441.303 261.318C441.089 261.587 440.773 261.728 440.458 261.728Z" fill="#5D00A7"/>
<path d="M436.166 263.874C435.932 263.874 435.694 263.797 435.496 263.64C433.904 262.366 430.05 258.205 430.011 258.164C429.61 257.728 429.64 257.048 430.075 256.647C430.513 256.248 431.189 256.273 431.593 256.711C432.322 257.505 435.552 260.936 436.837 261.964C437.299 262.333 437.374 263.009 437.005 263.473C436.792 263.735 436.479 263.874 436.166 263.874Z" fill="#5D00A7"/>
<path d="M431.874 266.02C431.629 266.02 431.385 265.937 431.183 265.767C429.601 264.432 426.606 261.256 425.726 260.314C425.322 259.881 425.344 259.203 425.777 258.797C426.209 258.391 426.889 258.415 427.294 258.848C427.906 259.503 431.037 262.836 432.567 264.125C433.02 264.507 433.078 265.183 432.696 265.638C432.483 265.889 432.179 266.02 431.874 266.02Z" fill="#5D00A7"/>
<path d="M411.487 256.363H405.049C404.457 256.363 403.976 255.883 403.976 255.29V235.977C403.976 235.681 404.099 235.397 404.313 235.196C404.528 234.992 404.809 234.891 405.114 234.906C407.324 235.037 414.678 235.601 416.517 237.344C416.756 237.567 416.876 237.889 416.848 238.215C416.361 243.795 412.663 255.142 412.507 255.623C412.363 256.065 411.951 256.363 411.487 256.363ZM406.122 254.217H410.704C411.502 251.698 414.075 243.348 414.644 238.649C413.292 237.992 409.571 237.4 406.122 237.127V254.217Z" fill="#5D00A7"/>
<path d="M454.406 258.509H447.969C447.486 258.509 447.063 258.187 446.934 257.722C446.136 254.829 441.983 242.97 440.657 240.835C440.496 240.573 440.453 240.258 440.539 239.964C440.625 239.67 440.833 239.428 441.112 239.297C441.307 239.206 445.981 237.05 454.406 237.05C454.999 237.05 455.479 237.528 455.479 238.123V257.436C455.479 258.029 454.999 258.509 454.406 258.509ZM448.771 256.363H453.333V239.209C448.228 239.329 444.711 240.284 443.074 240.84C444.75 244.41 447.754 253.05 448.771 256.363Z" fill="#5D00A7"/>
</g>
<path d="M401.916 94.1326H399.567V54.2894C399.567 53.6498 399.048 53.1306 398.408 53.1306H390.682C390.043 53.1306 389.524 53.6498 389.524 54.2894V94.1326H386.465C386.465 85.6068 386.465 99.1897 386.465 60.4698C386.465 59.8301 385.946 59.311 385.307 59.311H377.581C376.941 59.311 376.422 59.8301 376.422 60.4698V63.0362C376.422 64.5699 378.74 64.5699 378.74 63.0362V61.6286H384.148V94.0075H378.74V86.7785C378.74 85.2448 376.422 85.2448 376.422 86.7785V94.1326H373.364V87.1159C373.364 85.5821 371.046 85.5821 371.046 87.1159V94.1332H365.639V90.2127C365.639 88.679 363.321 88.679 363.321 90.2127V94.1326H360.971C359.438 94.1326 359.438 96.4503 360.971 96.4503H401.916C403.45 96.4503 403.45 94.1326 401.916 94.1326ZM391.841 55.4482H397.249V94.0075H391.841V55.4482Z" fill="#5D00A7"/>
<path d="M361.856 88.8855L368.769 81.9707C370.263 83.1079 372.119 83.7918 374.137 83.7918C379.036 83.7918 383.021 79.806 383.021 74.9076C383.021 70.0091 379.036 66.0233 374.137 66.0233C369.237 66.0233 365.252 70.0091 365.252 74.9076C365.252 76.9543 365.955 78.8362 367.122 80.3406L360.217 87.2472C359.132 88.3313 360.771 89.9701 361.856 88.8855ZM374.137 68.3409C377.758 68.3409 380.703 71.2869 380.703 74.9076C380.703 78.5282 377.758 81.4742 374.137 81.4742C370.515 81.4742 367.57 78.5282 367.57 74.9076C367.57 71.2869 370.515 68.3409 374.137 68.3409Z" fill="#5D00A7"/>
<path d="M371.968 78.2739C372.419 78.7246 373.152 78.7287 373.607 78.2739L378.22 73.6618C379.304 72.5772 377.666 70.9388 376.581 72.023L372.788 75.8157L371.211 74.2402C370.123 73.1545 368.489 74.7975 369.572 75.879L371.968 78.2739Z" fill="#5D00A7"/>
<defs>
<linearGradient id="paint0_linear_30_198" x1="367.72" y1="205.941" x2="434.56" y2="386.044" gradientUnits="userSpaceOnUse">
<stop stop-color="#6E07AD"/>
<stop offset="0.7793" stop-color="#CB457A"/>
<stop offset="1" stop-color="#E85A6A"/>
</linearGradient>
<linearGradient id="paint1_linear_30_198" x1="322.812" y1="31.4738" x2="389.652" y2="211.576" gradientUnits="userSpaceOnUse">
<stop stop-color="#6E07AD"/>
<stop offset="0.7793" stop-color="#CB457A"/>
<stop offset="1" stop-color="#E85A6A"/>
</linearGradient>
<linearGradient id="paint2_linear_30_198" x1="323.021" y1="380.728" x2="389.862" y2="560.831" gradientUnits="userSpaceOnUse">
<stop stop-color="#6E07AD"/>
<stop offset="0.7793" stop-color="#CB457A"/>
<stop offset="1" stop-color="#E85A6A"/>
</linearGradient>
<linearGradient id="paint3_linear_30_198" x1="246.171" y1="237.795" x2="263.292" y2="291.313" gradientUnits="userSpaceOnUse">
<stop stop-color="#6E07AD"/>
<stop offset="0.7793" stop-color="#CB457A"/>
<stop offset="1" stop-color="#E85A6A"/>
</linearGradient>
<linearGradient id="paint4_linear_30_198" x1="233.276" y1="144.582" x2="248.833" y2="199.184" gradientUnits="userSpaceOnUse">
<stop stop-color="#6E07AD"/>
<stop offset="0.7793" stop-color="#CB457A"/>
<stop offset="1" stop-color="#E85A6A"/>
</linearGradient>
<linearGradient id="paint5_linear_30_198" x1="233.276" y1="331.327" x2="248.833" y2="385.93" gradientUnits="userSpaceOnUse">
<stop stop-color="#6E07AD"/>
<stop offset="0.7793" stop-color="#CB457A"/>
<stop offset="1" stop-color="#E85A6A"/>
</linearGradient>
<radialGradient id="paint6_radial_30_198" cx="0" cy="0" r="1" gradientUnits="userSpaceOnUse" gradientTransform="translate(449.66 267.862) rotate(45) scale(89.7408)">
<stop offset="0.1854"/>
<stop offset="0.2504" stop-color="#323232"/>
<stop offset="0.322" stop-color="#626262"/>
<stop offset="0.398" stop-color="#8C8C8C"/>
<stop offset="0.477" stop-color="#B0B0B0"/>
<stop offset="0.5597" stop-color="#CCCCCC"/>
<stop offset="0.6475" stop-color="#E3E3E3"/>
<stop offset="0.7428" stop-color="#F3F3F3"/>
<stop offset="0.851" stop-color="#FCFCFC"/>
<stop offset="1" stop-color="white"/>
</radialGradient>
<radialGradient id="paint7_radial_30_198" cx="0" cy="0" r="1" gradientUnits="userSpaceOnUse" gradientTransform="translate(399.687 89.7408) rotate(45) scale(89.7408)">
<stop offset="0.1854"/>
<stop offset="0.2224" stop-color="#191919"/>
<stop offset="0.308" stop-color="#4F4F4F"/>
<stop offset="0.397" stop-color="#7E7E7E"/>
<stop offset="0.4876" stop-color="#A6A6A6"/>
<stop offset="0.5802" stop-color="#C6C6C6"/>
<stop offset="0.6753" stop-color="#DFDFDF"/>
<stop offset="0.7741" stop-color="#F1F1F1"/>
<stop offset="0.8789" stop-color="#FCFCFC"/>
<stop offset="1" stop-color="white"/>
</radialGradient>
<radialGradient id="paint8_radial_30_198" cx="0" cy="0" r="1" gradientUnits="userSpaceOnUse" gradientTransform="translate(398.834 437.205) rotate(45) scale(104.715)">
<stop offset="0.1854"/>
<stop offset="0.2504" stop-color="#323232"/>
<stop offset="0.322" stop-color="#626262"/>
<stop offset="0.398" stop-color="#8C8C8C"/>
<stop offset="0.477" stop-color="#B0B0B0"/>
<stop offset="0.5597" stop-color="#CCCCCC"/>
<stop offset="0.6475" stop-color="#E3E3E3"/>
<stop offset="0.7428" stop-color="#F3F3F3"/>
<stop offset="0.851" stop-color="#FCFCFC"/>
<stop offset="1" stop-color="white"/>
</radialGradient>
<linearGradient id="paint9_linear_30_198" x1="317.874" y1="23.92" x2="437.489" y2="138.024" gradientUnits="userSpaceOnUse">
<stop stop-color="#6E07AD"/>
<stop offset="0.7793" stop-color="#CB457A"/>
<stop offset="1" stop-color="#E85A6A"/>
</linearGradient>
<linearGradient id="paint10_linear_30_198" x1="363.426" y1="198.106" x2="483.015" y2="312.171" gradientUnits="userSpaceOnUse">
<stop stop-color="#6E07AD"/>
<stop offset="0.7793" stop-color="#CB457A"/>
<stop offset="1" stop-color="#E85A6A"/>
</linearGradient>
<linearGradient id="paint11_linear_30_198" x1="317.578" y1="372.898" x2="437.198" y2="487.006" gradientUnits="userSpaceOnUse">
<stop stop-color="#6E07AD"/>
<stop offset="0.7793" stop-color="#CB457A"/>
<stop offset="1" stop-color="#E85A6A"/>
</linearGradient>
<radialGradient id="paint12_radial_30_198" cx="0" cy="0" r="1" gradientUnits="userSpaceOnUse" gradientTransform="translate(172.983 278.561) scale(172.983)">
<stop offset="0.573" stop-color="#6B6E73"/>
<stop offset="0.6075" stop-color="#87898D"/>
<stop offset="0.6617" stop-color="#ABADB0"/>
<stop offset="0.7187" stop-color="#CACBCD"/>
<stop offset="0.7784" stop-color="#E1E2E3"/>
<stop offset="0.8418" stop-color="#F2F2F3"/>
<stop offset="0.9116" stop-color="#FCFCFC"/>
<stop offset="1" stop-color="white"/>
</radialGradient>
<linearGradient id="paint13_linear_30_198" x1="111.138" y1="212.857" x2="212.387" y2="303.202" gradientUnits="userSpaceOnUse">
<stop stop-color="#6E07AD"/>
<stop offset="0.7793" stop-color="#CB457A"/>
<stop offset="1" stop-color="#E85A6A"/>
</linearGradient>
<linearGradient id="paint14_linear_30_198" x1="113.916" y1="122.871" x2="207.044" y2="390.968" gradientUnits="userSpaceOnUse">
<stop offset="0.2409" stop-color="white"/>
<stop offset="0.5074" stop-color="#ECEDEC"/>
<stop offset="0.7226" stop-color="#E1E3E2"/>
</linearGradient>
<clipPath id="clip0_30_198">
<rect width="51.503" height="51.503" fill="white" transform="translate(358.107 399.874)"/>
</clipPath>
<clipPath id="clip1_30_198">
<rect width="51.503" height="51.503" fill="white" transform="translate(403.976 225.247)"/>
</clipPath>
</defs>
</svg>
