<svg width="20" height="20" viewBox="0 0 20 20" fill="none" xmlns="http://www.w3.org/2000/svg">
<path fill-rule="evenodd" clip-rule="evenodd" d="M12.3808 5.2358C13.0583 5.0108 13.8041 5.18663 14.3091 5.6908C14.8133 6.1958 14.9891 6.94163 14.7641 7.61913C13.8775 10.2783 12.435 14.605 11.4133 17.67C11.1575 18.4391 10.4375 18.9583 9.62664 18.9583C8.81581 18.9583 8.09581 18.4391 7.83914 17.67L6.46164 13.5383L2.32998 12.1608C1.56081 11.9041 1.04164 11.1841 1.04164 10.3733C1.04164 9.56246 1.56081 8.84246 2.32998 8.58663L12.3808 5.2358ZM12.7766 6.42163L2.72498 9.77246C2.46581 9.8583 2.29164 10.1008 2.29164 10.3733C2.29164 10.6466 2.46581 10.8883 2.72498 10.975L7.15331 12.4508C7.33998 12.5133 7.48664 12.66 7.54914 12.8466L9.02498 17.275C9.11164 17.5341 9.35331 17.7083 9.62664 17.7083C9.89914 17.7083 10.1416 17.5341 10.2275 17.275L13.5783 7.2233C13.6541 6.9958 13.595 6.74496 13.425 6.57496C13.255 6.40496 13.0041 6.3458 12.7766 6.42163Z" fill="#5D00A7"/>
<path fill-rule="evenodd" clip-rule="evenodd" d="M17.1358 3.7482L16.005 4.87903C15.7608 5.12237 15.365 5.12237 15.1208 4.87903C14.8775 4.63487 14.8775 4.23903 15.1208 3.99487L16.2517 2.86403C16.4958 2.61987 16.8917 2.61987 17.1358 2.86403C17.38 3.1082 17.38 3.50403 17.1358 3.7482Z" fill="#5D00A7"/>
<path fill-rule="evenodd" clip-rule="evenodd" d="M18.3333 7.8894H16.7341C16.3891 7.8894 16.1091 7.6094 16.1091 7.2644C16.1091 6.9194 16.3891 6.6394 16.7341 6.6394H18.3333C18.6783 6.6394 18.9583 6.9194 18.9583 7.2644C18.9583 7.6094 18.6783 7.8894 18.3333 7.8894Z" fill="#5D00A7"/>
<path fill-rule="evenodd" clip-rule="evenodd" d="M16.2517 11.6634L15.1208 10.5325C14.8775 10.2892 14.8775 9.89336 15.1208 9.64919C15.365 9.40502 15.7608 9.40502 16.005 9.64919L17.1358 10.78C17.38 11.0234 17.38 11.42 17.1358 11.6634C16.8917 11.9075 16.4958 11.9075 16.2517 11.6634Z" fill="#5D00A7"/>
<path fill-rule="evenodd" clip-rule="evenodd" d="M9.46748 4.87903L8.33664 3.7482C8.09248 3.50403 8.09248 3.1082 8.33664 2.86403C8.57998 2.61987 8.97581 2.61987 9.21998 2.86403L10.3508 3.99487C10.595 4.23903 10.595 4.63487 10.3508 4.87903C10.1066 5.12237 9.71081 5.12237 9.46748 4.87903Z" fill="#5D00A7"/>
<path fill-rule="evenodd" clip-rule="evenodd" d="M12.1108 3.26591V1.66675C12.1108 1.32175 12.3908 1.04175 12.7358 1.04175C13.0808 1.04175 13.3608 1.32175 13.3608 1.66675V3.26591C13.3608 3.61091 13.0808 3.89092 12.7358 3.89092C12.3908 3.89092 12.1108 3.61091 12.1108 3.26591Z" fill="#5D00A7"/>
</svg>
