<svg width="230" height="49" viewBox="0 0 230 49" fill="none" xmlns="http://www.w3.org/2000/svg">
<g opacity="0.25">
<path d="M19.9224 31.1374C21.3433 33.2379 22.6715 35.2457 24.0307 37.2844C24.0924 37.2844 24.1542 37.2843 24.2469 37.2535C25.9149 30.9521 27.6138 24.6507 29.3127 18.2876C23.382 18.2876 17.544 18.2876 11.4897 18.2876C12.8179 20.3571 14.0844 22.3031 15.3817 24.2801C13.0342 26.7512 10.6866 29.1914 7.41234 30.427C4.44699 31.539 0.925636 29.7783 0.153409 26.8438C-0.186371 25.5156 0.0607417 24.2183 0.709412 23.0445C3.52032 17.9478 6.36211 12.8511 9.17302 7.7544C13.343 0.248355 23.6291 0.526356 28.0771 7.01306C29.2509 8.74285 32.2472 10.1329 33.2665 11.9553C36.4481 17.7625 37.5601 24.1256 40.7725 29.9019C41.6683 31.5081 42.6877 33.0525 43.1201 34.875C44.541 40.7748 40.2783 47.2924 34.2241 48.0955C30.8571 48.528 27.4285 48.4353 24.0307 48.4971C22.6098 48.528 21.158 48.4662 19.768 48.2191C14.8257 47.416 13.1268 43.3386 14.1153 39.1068C14.7022 36.5121 16.2775 34.5043 18.1308 32.7128C18.6869 32.1877 19.2737 31.6934 19.9224 31.1374Z" fill="black"/>
</g>
<path d="M24.2469 28.9752C25.6678 31.0757 26.996 33.0834 28.3551 35.1221C28.4169 35.1221 28.4787 35.1221 28.5713 35.0912C30.2394 28.7899 31.9383 22.4885 33.6372 16.1253C27.7065 16.1253 21.8684 16.1253 15.8142 16.1253C17.1424 18.1949 18.4088 20.1409 19.7062 22.1178C17.3586 24.589 15.011 27.0292 11.7368 28.2648C8.77145 29.3768 5.2501 27.6161 4.47787 24.6816C4.13809 23.3534 4.3852 22.056 5.03387 20.8823C7.84478 15.7856 10.6866 10.6889 13.4975 5.59218C17.6675 -1.88298 27.9536 -1.60497 32.3707 4.88173C33.5445 6.61152 34.4403 8.52664 35.4596 10.3491C38.6721 16.1562 41.8536 21.9634 45.097 27.7705C45.9928 29.3768 47.0121 30.9212 47.4446 32.7437C48.8655 38.6435 44.6028 45.1611 38.5485 45.9642C35.1816 46.3966 31.7529 46.304 28.3551 46.3657C26.9342 46.3966 25.4824 46.3349 24.0924 46.0877C19.1502 45.2846 17.4513 41.2073 18.4397 36.9755C19.0266 34.3808 20.602 32.373 22.4553 30.5814C23.0113 30.0254 23.5982 29.5312 24.2469 28.9752Z" fill="url(#paint0_linear_16_8568)"/>
<path d="M60.2636 22.7357C60.2636 25.9172 62.8582 28.481 66.0089 28.481H74.9667V31.6935H66.0089C61.0667 31.6935 57.0511 27.6779 57.0511 22.7357C57.0511 17.7934 61.0667 13.7778 66.0089 13.7778H74.9667V16.9903H66.0089C62.8273 16.9903 60.2636 19.5541 60.2636 22.7357Z" fill="white"/>
<path d="M92.2955 28.512V31.7245H83.2141C82.3183 31.7245 81.4843 31.5083 80.7121 31.1376C79.6001 30.5816 78.6734 29.6549 78.1174 28.5429C77.7467 27.7707 77.5305 26.9367 77.5305 26.0409V13.8088H80.743V26.3189C80.8974 27.4309 81.7932 28.3267 82.9052 28.4811L92.2955 28.512Z" fill="white"/>
<path d="M94.8284 31.6935V13.7778H98.0409V31.6935H94.8284Z" fill="white"/>
<path d="M103.539 22.7357C103.539 25.9172 106.134 28.481 109.284 28.481H118.242V31.6935H109.284C104.342 31.6935 100.327 27.6779 100.327 22.7357C100.327 17.7934 104.342 13.7778 109.284 13.7778H118.242V16.9903H109.284C106.103 16.9903 103.539 19.5541 103.539 22.7357Z" fill="white"/>
<path d="M130.876 20.9751L138.629 31.6936H134.675L128.497 23.1373L123.957 27.2456V31.6627H120.775V13.7471H123.988V22.8902L126.613 20.4809L128.992 18.3187L133.965 13.7471H138.691L130.876 20.9751Z" fill="white"/>
<path d="M171.619 13.778V31.6936H168.406V20.2647L165.256 22.674L162.661 24.6818L160.066 22.674L156.915 20.2647V31.6627H153.703V13.7471L156.915 16.2182L162.661 20.6662L168.406 16.2491L171.619 13.778Z" fill="white"/>
<path d="M191.48 22.7357C191.48 27.6779 187.465 31.6935 182.522 31.6935C177.58 31.6935 173.565 27.6779 173.565 22.7357C173.565 17.7934 177.58 13.7778 182.522 13.7778C187.465 13.7778 191.48 17.7934 191.48 22.7357ZM188.268 22.7357C188.268 19.5541 185.673 16.9903 182.522 16.9903C179.341 16.9903 176.777 19.585 176.777 22.7357C176.777 25.8863 179.372 28.481 182.522 28.481C185.704 28.481 188.268 25.9172 188.268 22.7357Z" fill="white"/>
<path d="M207.882 28.5428L209.519 31.7553H205.936L204.299 28.5428L202.6 25.2068L202.539 25.0523C201.983 24.1257 200.963 23.5079 199.82 23.5079H196.608V31.7553H193.395V13.8396H204.701C206.029 13.8396 207.234 14.3647 208.099 15.2605C208.963 16.1563 209.519 17.3301 209.519 18.6583C209.519 20.6043 208.377 22.3032 206.709 23.0445C206.276 23.2608 205.813 23.3843 205.319 23.4152L207.882 28.5428ZM204.701 20.2954C204.917 20.2954 205.164 20.2336 205.38 20.141C205.967 19.8939 206.338 19.307 206.338 18.6583C206.338 18.0714 206.029 17.6698 205.844 17.4845C205.627 17.2683 205.257 17.0212 204.701 17.0212H196.608V20.3263L204.701 20.2954Z" fill="white"/>
<path d="M215.296 18.6274V20.2954H226.817V23.5079H215.296V26.8439C215.296 27.7397 216.037 28.481 216.933 28.481H229.999V31.6935H216.933C214.276 31.6935 212.114 29.5313 212.114 26.8439V18.6274C212.114 15.971 214.276 13.7778 216.933 13.7778H229.999V16.9903H216.933C216.037 16.9903 215.296 17.7316 215.296 18.6274Z" fill="white"/>
<defs>
<linearGradient id="paint0_linear_16_8568" x1="3.29118" y1="3.81362" x2="47.0109" y2="42.825" gradientUnits="userSpaceOnUse">
<stop stop-color="#6E07AD"/>
<stop offset="0.7793" stop-color="#CB457A"/>
<stop offset="1" stop-color="#E85A6A"/>
</linearGradient>
</defs>
</svg>
