<svg width="54" height="54" viewBox="0 0 54 54" fill="none" xmlns="http://www.w3.org/2000/svg">
<path d="M0.463402 44.5872L9.58729 35.4634L5.11257 30.9887C4.72487 30.601 4.5655 30.0403 4.69154 29.5066C4.81757 28.9729 5.21076 28.5426 5.73093 28.3692L32.5788 19.4199C33.1472 19.2303 33.7741 19.3783 34.1978 19.8021C34.6216 20.2259 34.7695 20.8526 34.58 21.421L25.6307 48.269C25.4572 48.7892 25.0269 49.1825 24.4933 49.3084C23.9597 49.4347 23.3988 49.2752 23.0111 48.8874L18.5364 44.4128L9.41253 53.5366C9.10361 53.8455 8.69872 54 8.29393 54C7.88914 54 7.48414 53.8456 7.17533 53.5366L0.463295 46.8246C-0.154541 46.2067 -0.154541 45.2051 0.463402 44.5872ZM8.29403 50.1806L17.4179 41.0568C18.0357 40.4389 19.0375 40.4389 19.6552 41.0568L23.4385 44.84L30.5778 23.4222L9.15993 30.5615L12.9432 34.3448C13.5605 34.962 13.561 35.9643 12.9432 36.5821L3.81931 45.7059L8.29403 50.1806Z" fill="#D34B73"/>
<path d="M33.4336 12.6562C32.5599 12.6562 31.8516 11.9479 31.8516 11.0742V1.58203C31.8516 0.708328 32.5599 0 33.4336 0C34.3073 0 35.0156 0.708328 35.0156 1.58203V11.0742C35.0156 11.9479 34.3073 12.6562 33.4336 12.6562Z" fill="#D34B73"/>
<path d="M45.739 6.02368C46.3567 5.40584 47.3584 5.40584 47.9763 6.02368C48.5941 6.64152 48.5941 7.64315 47.9763 8.26099L41.2642 14.973C40.6465 15.5909 39.6447 15.5909 39.0269 14.973C38.4091 14.3552 38.4091 13.3535 39.0269 12.7357L45.739 6.02368Z" fill="#D34B73"/>
<path d="M41.2642 26.1597L47.9763 32.8717C48.5941 33.4895 48.5941 34.4912 47.9763 35.109C47.3585 35.7268 46.3567 35.7268 45.739 35.109L39.0269 28.397C38.4091 27.7791 38.4091 26.7775 39.0269 26.1597C39.6448 25.5418 40.6465 25.5418 41.2642 26.1597Z" fill="#D34B73"/>
<path d="M25.603 14.973L18.891 8.26099C18.2732 7.64315 18.2732 6.64152 18.891 6.02368C19.5087 5.40584 20.5105 5.40584 21.1283 6.02368L27.8403 12.7357C28.4582 13.3535 28.4582 14.3552 27.8403 14.973C27.2226 15.5909 26.2208 15.5909 25.603 14.973Z" fill="#D34B73"/>
<path d="M41.3438 20.5664C41.3438 19.6927 42.0521 18.9844 42.9258 18.9844H52.418C53.2917 18.9844 54 19.6927 54 20.5664C54 21.4401 53.2917 22.1484 52.418 22.1484H42.9258C42.0521 22.1484 41.3438 21.4401 41.3438 20.5664Z" fill="#D34B73"/>
</svg>
