<svg width="54" height="54" viewBox="0 0 54 54" fill="none" xmlns="http://www.w3.org/2000/svg">
<g clip-path="url(#clip0_7_3331)">
<path d="M53.5366 44.5872L44.4127 35.4634L48.8874 30.9887C49.2751 30.601 49.4345 30.0403 49.3085 29.5066C49.1824 28.9729 48.7892 28.5426 48.2691 28.3692L21.4212 19.4199C20.8528 19.2303 20.2259 19.3783 19.8022 19.8021C19.3784 20.2259 19.2305 20.8526 19.42 21.421L28.3693 48.269C28.5428 48.7892 28.9731 49.1825 29.5067 49.3084C30.0403 49.4347 30.6012 49.2752 30.9889 48.8874L35.4636 44.4128L44.5875 53.5366C44.8964 53.8455 45.3013 54 45.7061 54C46.1109 54 46.5159 53.8456 46.8247 53.5366L53.5367 46.8246C54.1545 46.2067 54.1545 45.2051 53.5366 44.5872ZM45.706 50.1806L36.5821 41.0568C35.9643 40.4389 34.9625 40.4389 34.3448 41.0568L30.5615 44.84L23.4222 23.4222L44.8401 30.5615L41.0568 34.3448C40.4395 34.962 40.439 35.9643 41.0568 36.5821L50.1807 45.7059L45.706 50.1806Z" fill="#D34B73"/>
<path d="M20.5664 12.6562C21.4401 12.6562 22.1484 11.9479 22.1484 11.0742V1.58203C22.1484 0.708328 21.4401 0 20.5664 0C19.6927 0 18.9844 0.708328 18.9844 1.58203V11.0742C18.9844 11.9479 19.6927 12.6562 20.5664 12.6562Z" fill="#D34B73"/>
<path d="M8.26111 6.02368C7.64338 5.40584 6.64164 5.40584 6.0238 6.02368C5.40597 6.64152 5.40597 7.64315 6.0238 8.26099L12.7358 14.973C13.3536 15.5909 14.3554 15.5909 14.9731 14.973C15.591 14.3552 15.591 13.3535 14.9731 12.7357L8.26111 6.02368Z" fill="#D34B73"/>
<path d="M12.7358 26.1597L6.0238 32.8717C5.40597 33.4895 5.40597 34.4912 6.0238 35.109C6.64153 35.7268 7.64338 35.7268 8.26111 35.109L14.9731 28.397C15.591 27.7791 15.591 26.7775 14.9731 26.1597C14.3553 25.5418 13.3536 25.5418 12.7358 26.1597Z" fill="#D34B73"/>
<path d="M28.397 14.973L35.109 8.26099C35.7268 7.64315 35.7268 6.64152 35.109 6.02368C34.4913 5.40584 33.4895 5.40584 32.8717 6.02368L26.1597 12.7357C25.5418 13.3535 25.5418 14.3552 26.1597 14.973C26.7774 15.5909 27.7792 15.5909 28.397 14.973Z" fill="#D34B73"/>
<path d="M12.6562 20.5664C12.6562 19.6927 11.9479 18.9844 11.0742 18.9844H1.58203C0.708328 18.9844 0 19.6927 0 20.5664C0 21.4401 0.708328 22.1484 1.58203 22.1484H11.0742C11.9479 22.1484 12.6562 21.4401 12.6562 20.5664Z" fill="#D34B73"/>
</g>
<defs>
<clipPath id="clip0_7_3331">
<rect width="54" height="54" fill="white"/>
</clipPath>
</defs>
</svg>
